<?xml version="1.0" encoding="utf-8" standalone="no"?>
<!DOCTYPE svg PUBLIC "-//W3C//DTD SVG 1.1//EN"
  "http://www.w3.org/Graphics/SVG/1.1/DTD/svg11.dtd">
<svg xmlns:xlink="http://www.w3.org/1999/xlink" width="576pt" height="226.8pt" viewBox="0 0 576 226.8" xmlns="http://www.w3.org/2000/svg" version="1.1">
 <metadata>
  <rdf:RDF xmlns:dc="http://purl.org/dc/elements/1.1/" xmlns:cc="http://creativecommons.org/ns#" xmlns:rdf="http://www.w3.org/1999/02/22-rdf-syntax-ns#">
   <cc:Work>
    <dc:type rdf:resource="http://purl.org/dc/dcmitype/StillImage"/>
    <dc:date>2023-06-22T15:01:30.033371</dc:date>
    <dc:format>image/svg+xml</dc:format>
    <dc:creator>
     <cc:Agent>
      <dc:title>Matplotlib v3.7.1, https://matplotlib.org/</dc:title>
     </cc:Agent>
    </dc:creator>
   </cc:Work>
  </rdf:RDF>
 </metadata>
 <defs>
  <style type="text/css">*{stroke-linejoin: round; stroke-linecap: butt}</style>
 </defs>
 <g id="figure_1">
  <g id="patch_1">
   <path d="M 0 226.8 
L 576 226.8 
L 576 0 
L 0 0 
L 0 226.8 
z
" style="fill: none"/>
  </g>
  <g id="axes_1">
   <g id="patch_2">
    <path d="M 80.085561 191.223529 
L 542.117647 191.223529 
L 542.117647 13.341176 
L 80.085561 13.341176 
L 80.085561 191.223529 
z
" style="fill: none"/>
   </g>
   <g id="patch_3">
    <path d="M 299.550802 191.223529 
Q 299.550802 102.282353 299.550802 13.341176 
" style="fill: none; stroke-dasharray: 1,1.65; stroke-dashoffset: 0; stroke: #000000; stroke-linecap: round"/>
   </g>
   <g id="patch_4">
    <path d="M 395.807487 191.223529 
Q 395.807487 102.282353 395.807487 13.341176 
" style="fill: none; stroke-dasharray: 1,1.65; stroke-dashoffset: 0; stroke: #000000; stroke-linecap: round"/>
   </g>
   <g id="matplotlib.axis_1">
    <g id="xtick_1">
     <g id="line2d_1">
      <defs>
       <path id="mf66b33df12" d="M 0 0 
L 0 3.5 
" style="stroke: #000000; stroke-width: 0.8"/>
      </defs>
      <g>
       <use xlink:href="#mf66b33df12" x="80.085561" y="191.223529" style="stroke: #000000; stroke-width: 0.8"/>
      </g>
     </g>
     <g id="text_1">
      <!-- −30 -->
      <g transform="translate(69.533218 205.821967) scale(0.1 -0.1)">
       <defs>
        <path id="DejaVuSans-2212" d="M 678 2272 
L 4684 2272 
L 4684 1741 
L 678 1741 
L 678 2272 
z
" transform="scale(0.015625)"/>
        <path id="DejaVuSans-33" d="M 2597 2516 
Q 3050 2419 3304 2112 
Q 3559 1806 3559 1356 
Q 3559 666 3084 287 
Q 2609 -91 1734 -91 
Q 1441 -91 1130 -33 
Q 819 25 488 141 
L 488 750 
Q 750 597 1062 519 
Q 1375 441 1716 441 
Q 2309 441 2620 675 
Q 2931 909 2931 1356 
Q 2931 1769 2642 2001 
Q 2353 2234 1838 2234 
L 1294 2234 
L 1294 2753 
L 1863 2753 
Q 2328 2753 2575 2939 
Q 2822 3125 2822 3475 
Q 2822 3834 2567 4026 
Q 2313 4219 1838 4219 
Q 1578 4219 1281 4162 
Q 984 4106 628 3988 
L 628 4550 
Q 988 4650 1302 4700 
Q 1616 4750 1894 4750 
Q 2613 4750 3031 4423 
Q 3450 4097 3450 3541 
Q 3450 3153 3228 2886 
Q 3006 2619 2597 2516 
z
" transform="scale(0.015625)"/>
        <path id="DejaVuSans-30" d="M 2034 4250 
Q 1547 4250 1301 3770 
Q 1056 3291 1056 2328 
Q 1056 1369 1301 889 
Q 1547 409 2034 409 
Q 2525 409 2770 889 
Q 3016 1369 3016 2328 
Q 3016 3291 2770 3770 
Q 2525 4250 2034 4250 
z
M 2034 4750 
Q 2819 4750 3233 4129 
Q 3647 3509 3647 2328 
Q 3647 1150 3233 529 
Q 2819 -91 2034 -91 
Q 1250 -91 836 529 
Q 422 1150 422 2328 
Q 422 3509 836 4129 
Q 1250 4750 2034 4750 
z
" transform="scale(0.015625)"/>
       </defs>
       <use xlink:href="#DejaVuSans-2212"/>
       <use xlink:href="#DejaVuSans-33" x="83.789062"/>
       <use xlink:href="#DejaVuSans-30" x="147.412109"/>
      </g>
     </g>
    </g>
    <g id="xtick_2">
     <g id="line2d_2">
      <g>
       <use xlink:href="#mf66b33df12" x="157.090909" y="191.223529" style="stroke: #000000; stroke-width: 0.8"/>
      </g>
     </g>
     <g id="text_2">
      <!-- −20 -->
      <g transform="translate(146.538565 205.821967) scale(0.1 -0.1)">
       <defs>
        <path id="DejaVuSans-32" d="M 1228 531 
L 3431 531 
L 3431 0 
L 469 0 
L 469 531 
Q 828 903 1448 1529 
Q 2069 2156 2228 2338 
Q 2531 2678 2651 2914 
Q 2772 3150 2772 3378 
Q 2772 3750 2511 3984 
Q 2250 4219 1831 4219 
Q 1534 4219 1204 4116 
Q 875 4013 500 3803 
L 500 4441 
Q 881 4594 1212 4672 
Q 1544 4750 1819 4750 
Q 2544 4750 2975 4387 
Q 3406 4025 3406 3419 
Q 3406 3131 3298 2873 
Q 3191 2616 2906 2266 
Q 2828 2175 2409 1742 
Q 1991 1309 1228 531 
z
" transform="scale(0.015625)"/>
       </defs>
       <use xlink:href="#DejaVuSans-2212"/>
       <use xlink:href="#DejaVuSans-32" x="83.789062"/>
       <use xlink:href="#DejaVuSans-30" x="147.412109"/>
      </g>
     </g>
    </g>
    <g id="xtick_3">
     <g id="line2d_3">
      <g>
       <use xlink:href="#mf66b33df12" x="234.096257" y="191.223529" style="stroke: #000000; stroke-width: 0.8"/>
      </g>
     </g>
     <g id="text_3">
      <!-- −10 -->
      <g transform="translate(223.543913 205.821967) scale(0.1 -0.1)">
       <defs>
        <path id="DejaVuSans-31" d="M 794 531 
L 1825 531 
L 1825 4091 
L 703 3866 
L 703 4441 
L 1819 4666 
L 2450 4666 
L 2450 531 
L 3481 531 
L 3481 0 
L 794 0 
L 794 531 
z
" transform="scale(0.015625)"/>
       </defs>
       <use xlink:href="#DejaVuSans-2212"/>
       <use xlink:href="#DejaVuSans-31" x="83.789062"/>
       <use xlink:href="#DejaVuSans-30" x="147.412109"/>
      </g>
     </g>
    </g>
    <g id="xtick_4">
     <g id="line2d_4">
      <g>
       <use xlink:href="#mf66b33df12" x="311.101604" y="191.223529" style="stroke: #000000; stroke-width: 0.8"/>
      </g>
     </g>
     <g id="text_4">
      <!-- 0 -->
      <g transform="translate(307.920354 205.821967) scale(0.1 -0.1)">
       <use xlink:href="#DejaVuSans-30"/>
      </g>
     </g>
    </g>
    <g id="xtick_5">
     <g id="line2d_5">
      <g>
       <use xlink:href="#mf66b33df12" x="388.106952" y="191.223529" style="stroke: #000000; stroke-width: 0.8"/>
      </g>
     </g>
     <g id="text_5">
      <!-- 10 -->
      <g transform="translate(381.744452 205.821967) scale(0.1 -0.1)">
       <use xlink:href="#DejaVuSans-31"/>
       <use xlink:href="#DejaVuSans-30" x="63.623047"/>
      </g>
     </g>
    </g>
    <g id="xtick_6">
     <g id="line2d_6">
      <g>
       <use xlink:href="#mf66b33df12" x="465.112299" y="191.223529" style="stroke: #000000; stroke-width: 0.8"/>
      </g>
     </g>
     <g id="text_6">
      <!-- 20 -->
      <g transform="translate(458.749799 205.821967) scale(0.1 -0.1)">
       <use xlink:href="#DejaVuSans-32"/>
       <use xlink:href="#DejaVuSans-30" x="63.623047"/>
      </g>
     </g>
    </g>
    <g id="xtick_7">
     <g id="line2d_7">
      <g>
       <use xlink:href="#mf66b33df12" x="542.117647" y="191.223529" style="stroke: #000000; stroke-width: 0.8"/>
      </g>
     </g>
     <g id="text_7">
      <!-- 30 -->
      <g transform="translate(535.755147 205.821967) scale(0.1 -0.1)">
       <use xlink:href="#DejaVuSans-33"/>
       <use xlink:href="#DejaVuSans-30" x="63.623047"/>
      </g>
     </g>
    </g>
    <g id="text_8">
     <!-- Time (ns) -->
     <g transform="translate(287.603948 219.500092) scale(0.1 -0.1)">
      <defs>
       <path id="DejaVuSans-54" d="M -19 4666 
L 3928 4666 
L 3928 4134 
L 2272 4134 
L 2272 0 
L 1638 0 
L 1638 4134 
L -19 4134 
L -19 4666 
z
" transform="scale(0.015625)"/>
       <path id="DejaVuSans-69" d="M 603 3500 
L 1178 3500 
L 1178 0 
L 603 0 
L 603 3500 
z
M 603 4863 
L 1178 4863 
L 1178 4134 
L 603 4134 
L 603 4863 
z
" transform="scale(0.015625)"/>
       <path id="DejaVuSans-6d" d="M 3328 2828 
Q 3544 3216 3844 3400 
Q 4144 3584 4550 3584 
Q 5097 3584 5394 3201 
Q 5691 2819 5691 2113 
L 5691 0 
L 5113 0 
L 5113 2094 
Q 5113 2597 4934 2840 
Q 4756 3084 4391 3084 
Q 3944 3084 3684 2787 
Q 3425 2491 3425 1978 
L 3425 0 
L 2847 0 
L 2847 2094 
Q 2847 2600 2669 2842 
Q 2491 3084 2119 3084 
Q 1678 3084 1418 2786 
Q 1159 2488 1159 1978 
L 1159 0 
L 581 0 
L 581 3500 
L 1159 3500 
L 1159 2956 
Q 1356 3278 1631 3431 
Q 1906 3584 2284 3584 
Q 2666 3584 2933 3390 
Q 3200 3197 3328 2828 
z
" transform="scale(0.015625)"/>
       <path id="DejaVuSans-65" d="M 3597 1894 
L 3597 1613 
L 953 1613 
Q 991 1019 1311 708 
Q 1631 397 2203 397 
Q 2534 397 2845 478 
Q 3156 559 3463 722 
L 3463 178 
Q 3153 47 2828 -22 
Q 2503 -91 2169 -91 
Q 1331 -91 842 396 
Q 353 884 353 1716 
Q 353 2575 817 3079 
Q 1281 3584 2069 3584 
Q 2775 3584 3186 3129 
Q 3597 2675 3597 1894 
z
M 3022 2063 
Q 3016 2534 2758 2815 
Q 2500 3097 2075 3097 
Q 1594 3097 1305 2825 
Q 1016 2553 972 2059 
L 3022 2063 
z
" transform="scale(0.015625)"/>
       <path id="DejaVuSans-20" transform="scale(0.015625)"/>
       <path id="DejaVuSans-28" d="M 1984 4856 
Q 1566 4138 1362 3434 
Q 1159 2731 1159 2009 
Q 1159 1288 1364 580 
Q 1569 -128 1984 -844 
L 1484 -844 
Q 1016 -109 783 600 
Q 550 1309 550 2009 
Q 550 2706 781 3412 
Q 1013 4119 1484 4856 
L 1984 4856 
z
" transform="scale(0.015625)"/>
       <path id="DejaVuSans-6e" d="M 3513 2113 
L 3513 0 
L 2938 0 
L 2938 2094 
Q 2938 2591 2744 2837 
Q 2550 3084 2163 3084 
Q 1697 3084 1428 2787 
Q 1159 2491 1159 1978 
L 1159 0 
L 581 0 
L 581 3500 
L 1159 3500 
L 1159 2956 
Q 1366 3272 1645 3428 
Q 1925 3584 2291 3584 
Q 2894 3584 3203 3211 
Q 3513 2838 3513 2113 
z
" transform="scale(0.015625)"/>
       <path id="DejaVuSans-73" d="M 2834 3397 
L 2834 2853 
Q 2591 2978 2328 3040 
Q 2066 3103 1784 3103 
Q 1356 3103 1142 2972 
Q 928 2841 928 2578 
Q 928 2378 1081 2264 
Q 1234 2150 1697 2047 
L 1894 2003 
Q 2506 1872 2764 1633 
Q 3022 1394 3022 966 
Q 3022 478 2636 193 
Q 2250 -91 1575 -91 
Q 1294 -91 989 -36 
Q 684 19 347 128 
L 347 722 
Q 666 556 975 473 
Q 1284 391 1588 391 
Q 1994 391 2212 530 
Q 2431 669 2431 922 
Q 2431 1156 2273 1281 
Q 2116 1406 1581 1522 
L 1381 1569 
Q 847 1681 609 1914 
Q 372 2147 372 2553 
Q 372 3047 722 3315 
Q 1072 3584 1716 3584 
Q 2034 3584 2315 3537 
Q 2597 3491 2834 3397 
z
" transform="scale(0.015625)"/>
       <path id="DejaVuSans-29" d="M 513 4856 
L 1013 4856 
Q 1481 4119 1714 3412 
Q 1947 2706 1947 2009 
Q 1947 1309 1714 600 
Q 1481 -109 1013 -844 
L 513 -844 
Q 928 -128 1133 580 
Q 1338 1288 1338 2009 
Q 1338 2731 1133 3434 
Q 928 4138 513 4856 
z
" transform="scale(0.015625)"/>
      </defs>
      <use xlink:href="#DejaVuSans-54"/>
      <use xlink:href="#DejaVuSans-69" x="57.958984"/>
      <use xlink:href="#DejaVuSans-6d" x="85.742188"/>
      <use xlink:href="#DejaVuSans-65" x="183.154297"/>
      <use xlink:href="#DejaVuSans-20" x="244.677734"/>
      <use xlink:href="#DejaVuSans-28" x="276.464844"/>
      <use xlink:href="#DejaVuSans-6e" x="315.478516"/>
      <use xlink:href="#DejaVuSans-73" x="378.857422"/>
      <use xlink:href="#DejaVuSans-29" x="430.957031"/>
     </g>
    </g>
   </g>
   <g id="matplotlib.axis_2">
    <g id="ytick_1">
     <g id="line2d_8">
      <defs>
       <path id="me300570dae" d="M 0 0 
L -3.5 0 
" style="stroke: #000000; stroke-width: 0.8"/>
      </defs>
      <g>
       <use xlink:href="#me300570dae" x="80.085561" y="38.752941" style="stroke: #000000; stroke-width: 0.8"/>
      </g>
     </g>
     <g id="text_9">
      <!-- Case 1: -->
      <g transform="translate(35.702749 37.713097) scale(0.1 -0.1)">
       <defs>
        <path id="DejaVuSans-43" d="M 4122 4306 
L 4122 3641 
Q 3803 3938 3442 4084 
Q 3081 4231 2675 4231 
Q 1875 4231 1450 3742 
Q 1025 3253 1025 2328 
Q 1025 1406 1450 917 
Q 1875 428 2675 428 
Q 3081 428 3442 575 
Q 3803 722 4122 1019 
L 4122 359 
Q 3791 134 3420 21 
Q 3050 -91 2638 -91 
Q 1578 -91 968 557 
Q 359 1206 359 2328 
Q 359 3453 968 4101 
Q 1578 4750 2638 4750 
Q 3056 4750 3426 4639 
Q 3797 4528 4122 4306 
z
" transform="scale(0.015625)"/>
        <path id="DejaVuSans-61" d="M 2194 1759 
Q 1497 1759 1228 1600 
Q 959 1441 959 1056 
Q 959 750 1161 570 
Q 1363 391 1709 391 
Q 2188 391 2477 730 
Q 2766 1069 2766 1631 
L 2766 1759 
L 2194 1759 
z
M 3341 1997 
L 3341 0 
L 2766 0 
L 2766 531 
Q 2569 213 2275 61 
Q 1981 -91 1556 -91 
Q 1019 -91 701 211 
Q 384 513 384 1019 
Q 384 1609 779 1909 
Q 1175 2209 1959 2209 
L 2766 2209 
L 2766 2266 
Q 2766 2663 2505 2880 
Q 2244 3097 1772 3097 
Q 1472 3097 1187 3025 
Q 903 2953 641 2809 
L 641 3341 
Q 956 3463 1253 3523 
Q 1550 3584 1831 3584 
Q 2591 3584 2966 3190 
Q 3341 2797 3341 1997 
z
" transform="scale(0.015625)"/>
        <path id="DejaVuSans-3a" d="M 750 794 
L 1409 794 
L 1409 0 
L 750 0 
L 750 794 
z
M 750 3309 
L 1409 3309 
L 1409 2516 
L 750 2516 
L 750 3309 
z
" transform="scale(0.015625)"/>
       </defs>
       <use xlink:href="#DejaVuSans-43"/>
       <use xlink:href="#DejaVuSans-61" x="69.824219"/>
       <use xlink:href="#DejaVuSans-73" x="131.103516"/>
       <use xlink:href="#DejaVuSans-65" x="183.203125"/>
       <use xlink:href="#DejaVuSans-20" x="244.726562"/>
       <use xlink:href="#DejaVuSans-31" x="276.513672"/>
       <use xlink:href="#DejaVuSans-3a" x="340.136719"/>
      </g>
      <!-- without CF -->
      <g transform="translate(19.582436 48.91091) scale(0.1 -0.1)">
       <defs>
        <path id="DejaVuSans-77" d="M 269 3500 
L 844 3500 
L 1563 769 
L 2278 3500 
L 2956 3500 
L 3675 769 
L 4391 3500 
L 4966 3500 
L 4050 0 
L 3372 0 
L 2619 2869 
L 1863 0 
L 1184 0 
L 269 3500 
z
" transform="scale(0.015625)"/>
        <path id="DejaVuSans-74" d="M 1172 4494 
L 1172 3500 
L 2356 3500 
L 2356 3053 
L 1172 3053 
L 1172 1153 
Q 1172 725 1289 603 
Q 1406 481 1766 481 
L 2356 481 
L 2356 0 
L 1766 0 
Q 1100 0 847 248 
Q 594 497 594 1153 
L 594 3053 
L 172 3053 
L 172 3500 
L 594 3500 
L 594 4494 
L 1172 4494 
z
" transform="scale(0.015625)"/>
        <path id="DejaVuSans-68" d="M 3513 2113 
L 3513 0 
L 2938 0 
L 2938 2094 
Q 2938 2591 2744 2837 
Q 2550 3084 2163 3084 
Q 1697 3084 1428 2787 
Q 1159 2491 1159 1978 
L 1159 0 
L 581 0 
L 581 4863 
L 1159 4863 
L 1159 2956 
Q 1366 3272 1645 3428 
Q 1925 3584 2291 3584 
Q 2894 3584 3203 3211 
Q 3513 2838 3513 2113 
z
" transform="scale(0.015625)"/>
        <path id="DejaVuSans-6f" d="M 1959 3097 
Q 1497 3097 1228 2736 
Q 959 2375 959 1747 
Q 959 1119 1226 758 
Q 1494 397 1959 397 
Q 2419 397 2687 759 
Q 2956 1122 2956 1747 
Q 2956 2369 2687 2733 
Q 2419 3097 1959 3097 
z
M 1959 3584 
Q 2709 3584 3137 3096 
Q 3566 2609 3566 1747 
Q 3566 888 3137 398 
Q 2709 -91 1959 -91 
Q 1206 -91 779 398 
Q 353 888 353 1747 
Q 353 2609 779 3096 
Q 1206 3584 1959 3584 
z
" transform="scale(0.015625)"/>
        <path id="DejaVuSans-75" d="M 544 1381 
L 544 3500 
L 1119 3500 
L 1119 1403 
Q 1119 906 1312 657 
Q 1506 409 1894 409 
Q 2359 409 2629 706 
Q 2900 1003 2900 1516 
L 2900 3500 
L 3475 3500 
L 3475 0 
L 2900 0 
L 2900 538 
Q 2691 219 2414 64 
Q 2138 -91 1772 -91 
Q 1169 -91 856 284 
Q 544 659 544 1381 
z
M 1991 3584 
L 1991 3584 
z
" transform="scale(0.015625)"/>
        <path id="DejaVuSans-46" d="M 628 4666 
L 3309 4666 
L 3309 4134 
L 1259 4134 
L 1259 2759 
L 3109 2759 
L 3109 2228 
L 1259 2228 
L 1259 0 
L 628 0 
L 628 4666 
z
" transform="scale(0.015625)"/>
       </defs>
       <use xlink:href="#DejaVuSans-77"/>
       <use xlink:href="#DejaVuSans-69" x="81.787109"/>
       <use xlink:href="#DejaVuSans-74" x="109.570312"/>
       <use xlink:href="#DejaVuSans-68" x="148.779297"/>
       <use xlink:href="#DejaVuSans-6f" x="212.158203"/>
       <use xlink:href="#DejaVuSans-75" x="273.339844"/>
       <use xlink:href="#DejaVuSans-74" x="336.71875"/>
       <use xlink:href="#DejaVuSans-20" x="375.927734"/>
       <use xlink:href="#DejaVuSans-43" x="407.714844"/>
       <use xlink:href="#DejaVuSans-46" x="477.539062"/>
      </g>
     </g>
    </g>
    <g id="ytick_2">
     <g id="line2d_9">
      <g>
       <use xlink:href="#me300570dae" x="80.085561" y="81.105882" style="stroke: #000000; stroke-width: 0.8"/>
      </g>
     </g>
     <g id="text_10">
      <!-- Case 2: -->
      <g transform="translate(35.702749 80.066039) scale(0.1 -0.1)">
       <use xlink:href="#DejaVuSans-43"/>
       <use xlink:href="#DejaVuSans-61" x="69.824219"/>
       <use xlink:href="#DejaVuSans-73" x="131.103516"/>
       <use xlink:href="#DejaVuSans-65" x="183.203125"/>
       <use xlink:href="#DejaVuSans-20" x="244.726562"/>
       <use xlink:href="#DejaVuSans-32" x="276.513672"/>
       <use xlink:href="#DejaVuSans-3a" x="340.136719"/>
      </g>
      <!-- with CF -->
      <g transform="translate(35.958999 91.263851) scale(0.1 -0.1)">
       <use xlink:href="#DejaVuSans-77"/>
       <use xlink:href="#DejaVuSans-69" x="81.787109"/>
       <use xlink:href="#DejaVuSans-74" x="109.570312"/>
       <use xlink:href="#DejaVuSans-68" x="148.779297"/>
       <use xlink:href="#DejaVuSans-20" x="212.158203"/>
       <use xlink:href="#DejaVuSans-43" x="243.945312"/>
       <use xlink:href="#DejaVuSans-46" x="313.769531"/>
      </g>
     </g>
    </g>
    <g id="ytick_3">
     <g id="line2d_10">
      <g>
       <use xlink:href="#me300570dae" x="80.085561" y="123.458824" style="stroke: #000000; stroke-width: 0.8"/>
      </g>
     </g>
     <g id="text_11">
      <!-- Case 3: -->
      <g transform="translate(35.702749 116.820074) scale(0.1 -0.1)">
       <use xlink:href="#DejaVuSans-43"/>
       <use xlink:href="#DejaVuSans-61" x="69.824219"/>
       <use xlink:href="#DejaVuSans-73" x="131.103516"/>
       <use xlink:href="#DejaVuSans-65" x="183.203125"/>
       <use xlink:href="#DejaVuSans-20" x="244.726562"/>
       <use xlink:href="#DejaVuSans-33" x="276.513672"/>
       <use xlink:href="#DejaVuSans-3a" x="340.136719"/>
      </g>
      <!-- with CF, -->
      <g transform="translate(32.780874 128.017886) scale(0.1 -0.1)">
       <defs>
        <path id="DejaVuSans-2c" d="M 750 794 
L 1409 794 
L 1409 256 
L 897 -744 
L 494 -744 
L 750 256 
L 750 794 
z
" transform="scale(0.015625)"/>
       </defs>
       <use xlink:href="#DejaVuSans-77"/>
       <use xlink:href="#DejaVuSans-69" x="81.787109"/>
       <use xlink:href="#DejaVuSans-74" x="109.570312"/>
       <use xlink:href="#DejaVuSans-68" x="148.779297"/>
       <use xlink:href="#DejaVuSans-20" x="212.158203"/>
       <use xlink:href="#DejaVuSans-43" x="243.945312"/>
       <use xlink:href="#DejaVuSans-46" x="313.769531"/>
       <use xlink:href="#DejaVuSans-2c" x="371.289062"/>
      </g>
      <!-- shifted -->
      <g transform="translate(38.993374 139.215699) scale(0.1 -0.1)">
       <defs>
        <path id="DejaVuSans-66" d="M 2375 4863 
L 2375 4384 
L 1825 4384 
Q 1516 4384 1395 4259 
Q 1275 4134 1275 3809 
L 1275 3500 
L 2222 3500 
L 2222 3053 
L 1275 3053 
L 1275 0 
L 697 0 
L 697 3053 
L 147 3053 
L 147 3500 
L 697 3500 
L 697 3744 
Q 697 4328 969 4595 
Q 1241 4863 1831 4863 
L 2375 4863 
z
" transform="scale(0.015625)"/>
        <path id="DejaVuSans-64" d="M 2906 2969 
L 2906 4863 
L 3481 4863 
L 3481 0 
L 2906 0 
L 2906 525 
Q 2725 213 2448 61 
Q 2172 -91 1784 -91 
Q 1150 -91 751 415 
Q 353 922 353 1747 
Q 353 2572 751 3078 
Q 1150 3584 1784 3584 
Q 2172 3584 2448 3432 
Q 2725 3281 2906 2969 
z
M 947 1747 
Q 947 1113 1208 752 
Q 1469 391 1925 391 
Q 2381 391 2643 752 
Q 2906 1113 2906 1747 
Q 2906 2381 2643 2742 
Q 2381 3103 1925 3103 
Q 1469 3103 1208 2742 
Q 947 2381 947 1747 
z
" transform="scale(0.015625)"/>
       </defs>
       <use xlink:href="#DejaVuSans-73"/>
       <use xlink:href="#DejaVuSans-68" x="52.099609"/>
       <use xlink:href="#DejaVuSans-69" x="115.478516"/>
       <use xlink:href="#DejaVuSans-66" x="143.261719"/>
       <use xlink:href="#DejaVuSans-74" x="176.716797"/>
       <use xlink:href="#DejaVuSans-65" x="215.925781"/>
       <use xlink:href="#DejaVuSans-64" x="277.449219"/>
      </g>
     </g>
    </g>
    <g id="ytick_4">
     <g id="line2d_11">
      <g>
       <use xlink:href="#me300570dae" x="80.085561" y="165.811765" style="stroke: #000000; stroke-width: 0.8"/>
      </g>
     </g>
     <g id="text_12">
      <!-- Case 4: -->
      <g transform="translate(35.702749 159.173015) scale(0.1 -0.1)">
       <defs>
        <path id="DejaVuSans-34" d="M 2419 4116 
L 825 1625 
L 2419 1625 
L 2419 4116 
z
M 2253 4666 
L 3047 4666 
L 3047 1625 
L 3713 1625 
L 3713 1100 
L 3047 1100 
L 3047 0 
L 2419 0 
L 2419 1100 
L 313 1100 
L 313 1709 
L 2253 4666 
z
" transform="scale(0.015625)"/>
       </defs>
       <use xlink:href="#DejaVuSans-43"/>
       <use xlink:href="#DejaVuSans-61" x="69.824219"/>
       <use xlink:href="#DejaVuSans-73" x="131.103516"/>
       <use xlink:href="#DejaVuSans-65" x="183.203125"/>
       <use xlink:href="#DejaVuSans-20" x="244.726562"/>
       <use xlink:href="#DejaVuSans-34" x="276.513672"/>
       <use xlink:href="#DejaVuSans-3a" x="340.136719"/>
      </g>
      <!-- click prob. -->
      <g transform="translate(21.683999 170.370827) scale(0.1 -0.1)">
       <defs>
        <path id="DejaVuSans-63" d="M 3122 3366 
L 3122 2828 
Q 2878 2963 2633 3030 
Q 2388 3097 2138 3097 
Q 1578 3097 1268 2742 
Q 959 2388 959 1747 
Q 959 1106 1268 751 
Q 1578 397 2138 397 
Q 2388 397 2633 464 
Q 2878 531 3122 666 
L 3122 134 
Q 2881 22 2623 -34 
Q 2366 -91 2075 -91 
Q 1284 -91 818 406 
Q 353 903 353 1747 
Q 353 2603 823 3093 
Q 1294 3584 2113 3584 
Q 2378 3584 2631 3529 
Q 2884 3475 3122 3366 
z
" transform="scale(0.015625)"/>
        <path id="DejaVuSans-6c" d="M 603 4863 
L 1178 4863 
L 1178 0 
L 603 0 
L 603 4863 
z
" transform="scale(0.015625)"/>
        <path id="DejaVuSans-6b" d="M 581 4863 
L 1159 4863 
L 1159 1991 
L 2875 3500 
L 3609 3500 
L 1753 1863 
L 3688 0 
L 2938 0 
L 1159 1709 
L 1159 0 
L 581 0 
L 581 4863 
z
" transform="scale(0.015625)"/>
        <path id="DejaVuSans-70" d="M 1159 525 
L 1159 -1331 
L 581 -1331 
L 581 3500 
L 1159 3500 
L 1159 2969 
Q 1341 3281 1617 3432 
Q 1894 3584 2278 3584 
Q 2916 3584 3314 3078 
Q 3713 2572 3713 1747 
Q 3713 922 3314 415 
Q 2916 -91 2278 -91 
Q 1894 -91 1617 61 
Q 1341 213 1159 525 
z
M 3116 1747 
Q 3116 2381 2855 2742 
Q 2594 3103 2138 3103 
Q 1681 3103 1420 2742 
Q 1159 2381 1159 1747 
Q 1159 1113 1420 752 
Q 1681 391 2138 391 
Q 2594 391 2855 752 
Q 3116 1113 3116 1747 
z
" transform="scale(0.015625)"/>
        <path id="DejaVuSans-72" d="M 2631 2963 
Q 2534 3019 2420 3045 
Q 2306 3072 2169 3072 
Q 1681 3072 1420 2755 
Q 1159 2438 1159 1844 
L 1159 0 
L 581 0 
L 581 3500 
L 1159 3500 
L 1159 2956 
Q 1341 3275 1631 3429 
Q 1922 3584 2338 3584 
Q 2397 3584 2469 3576 
Q 2541 3569 2628 3553 
L 2631 2963 
z
" transform="scale(0.015625)"/>
        <path id="DejaVuSans-62" d="M 3116 1747 
Q 3116 2381 2855 2742 
Q 2594 3103 2138 3103 
Q 1681 3103 1420 2742 
Q 1159 2381 1159 1747 
Q 1159 1113 1420 752 
Q 1681 391 2138 391 
Q 2594 391 2855 752 
Q 3116 1113 3116 1747 
z
M 1159 2969 
Q 1341 3281 1617 3432 
Q 1894 3584 2278 3584 
Q 2916 3584 3314 3078 
Q 3713 2572 3713 1747 
Q 3713 922 3314 415 
Q 2916 -91 2278 -91 
Q 1894 -91 1617 61 
Q 1341 213 1159 525 
L 1159 0 
L 581 0 
L 581 4863 
L 1159 4863 
L 1159 2969 
z
" transform="scale(0.015625)"/>
        <path id="DejaVuSans-2e" d="M 684 794 
L 1344 794 
L 1344 0 
L 684 0 
L 684 794 
z
" transform="scale(0.015625)"/>
       </defs>
       <use xlink:href="#DejaVuSans-63"/>
       <use xlink:href="#DejaVuSans-6c" x="54.980469"/>
       <use xlink:href="#DejaVuSans-69" x="82.763672"/>
       <use xlink:href="#DejaVuSans-63" x="110.546875"/>
       <use xlink:href="#DejaVuSans-6b" x="165.527344"/>
       <use xlink:href="#DejaVuSans-20" x="223.4375"/>
       <use xlink:href="#DejaVuSans-70" x="255.224609"/>
       <use xlink:href="#DejaVuSans-72" x="318.701172"/>
       <use xlink:href="#DejaVuSans-6f" x="357.564453"/>
       <use xlink:href="#DejaVuSans-62" x="418.746094"/>
       <use xlink:href="#DejaVuSans-2e" x="482.222656"/>
      </g>
      <!-- @ 40% -->
      <g transform="translate(37.680874 181.56864) scale(0.1 -0.1)">
       <defs>
        <path id="DejaVuSans-40" d="M 2381 1678 
Q 2381 1231 2603 976 
Q 2825 722 3213 722 
Q 3597 722 3817 978 
Q 4038 1234 4038 1678 
Q 4038 2116 3813 2373 
Q 3588 2631 3206 2631 
Q 2828 2631 2604 2375 
Q 2381 2119 2381 1678 
z
M 4084 744 
Q 3897 503 3655 389 
Q 3413 275 3091 275 
Q 2553 275 2217 664 
Q 1881 1053 1881 1678 
Q 1881 2303 2218 2693 
Q 2556 3084 3091 3084 
Q 3413 3084 3656 2967 
Q 3900 2850 4084 2613 
L 4084 3022 
L 4531 3022 
L 4531 722 
Q 4988 791 5245 1139 
Q 5503 1488 5503 2041 
Q 5503 2375 5404 2669 
Q 5306 2963 5106 3213 
Q 4781 3622 4314 3839 
Q 3847 4056 3297 4056 
Q 2913 4056 2559 3954 
Q 2206 3853 1906 3653 
Q 1416 3334 1139 2817 
Q 863 2300 863 1697 
Q 863 1200 1042 765 
Q 1222 331 1563 0 
Q 1891 -325 2322 -495 
Q 2753 -666 3244 -666 
Q 3647 -666 4036 -530 
Q 4425 -394 4750 -141 
L 5031 -488 
Q 4641 -791 4180 -952 
Q 3719 -1113 3244 -1113 
Q 2666 -1113 2153 -908 
Q 1641 -703 1241 -313 
Q 841 78 631 592 
Q 422 1106 422 1697 
Q 422 2266 634 2781 
Q 847 3297 1241 3688 
Q 1644 4084 2172 4295 
Q 2700 4506 3291 4506 
Q 3953 4506 4520 4234 
Q 5088 3963 5472 3463 
Q 5706 3156 5829 2797 
Q 5953 2438 5953 2053 
Q 5953 1231 5456 756 
Q 4959 281 4084 263 
L 4084 744 
z
" transform="scale(0.015625)"/>
        <path id="DejaVuSans-25" d="M 4653 2053 
Q 4381 2053 4226 1822 
Q 4072 1591 4072 1178 
Q 4072 772 4226 539 
Q 4381 306 4653 306 
Q 4919 306 5073 539 
Q 5228 772 5228 1178 
Q 5228 1588 5073 1820 
Q 4919 2053 4653 2053 
z
M 4653 2450 
Q 5147 2450 5437 2106 
Q 5728 1763 5728 1178 
Q 5728 594 5436 251 
Q 5144 -91 4653 -91 
Q 4153 -91 3862 251 
Q 3572 594 3572 1178 
Q 3572 1766 3864 2108 
Q 4156 2450 4653 2450 
z
M 1428 4353 
Q 1159 4353 1004 4120 
Q 850 3888 850 3481 
Q 850 3069 1003 2837 
Q 1156 2606 1428 2606 
Q 1700 2606 1854 2837 
Q 2009 3069 2009 3481 
Q 2009 3884 1853 4118 
Q 1697 4353 1428 4353 
z
M 4250 4750 
L 4750 4750 
L 1831 -91 
L 1331 -91 
L 4250 4750 
z
M 1428 4750 
Q 1922 4750 2215 4408 
Q 2509 4066 2509 3481 
Q 2509 2891 2217 2550 
Q 1925 2209 1428 2209 
Q 931 2209 642 2551 
Q 353 2894 353 3481 
Q 353 4063 643 4406 
Q 934 4750 1428 4750 
z
" transform="scale(0.015625)"/>
       </defs>
       <use xlink:href="#DejaVuSans-40"/>
       <use xlink:href="#DejaVuSans-20" x="100"/>
       <use xlink:href="#DejaVuSans-34" x="131.787109"/>
       <use xlink:href="#DejaVuSans-30" x="195.410156"/>
       <use xlink:href="#DejaVuSans-25" x="259.033203"/>
      </g>
     </g>
    </g>
   </g>
   <g id="line2d_12">
    <path d="M 79.748452 55.571948 
L 95.159154 55.662 
L 95.544421 55.305417 
L 95.929689 54.351046 
L 96.700224 51.236244 
L 98.241294 43.006005 
L 99.782364 35.179978 
L 100.938167 30.561765 
L 101.708702 28.187665 
L 102.479237 26.368057 
L 103.249772 25.066283 
L 104.020307 24.23225 
L 104.790842 23.809699 
L 105.561377 23.741066 
L 106.331912 23.970608 
L 107.102447 24.446294 
L 108.25825 25.519338 
L 109.79932 27.414038 
L 112.110925 30.761221 
L 116.348868 36.987137 
L 118.660473 39.995107 
L 120.972078 42.623523 
L 123.283683 44.870833 
L 125.595288 46.765058 
L 127.906894 48.346532 
L 130.218499 49.658443 
L 132.915372 50.90309 
L 135.612244 51.895032 
L 138.694385 52.782126 
L 142.161792 53.536373 
L 146.014468 54.148294 
L 150.637678 54.658452 
L 156.416691 55.066489 
L 164.122042 55.372292 
L 175.2948 55.571946 
L 191.476036 55.664075 
L 191.861304 55.307424 
L 192.246571 54.352987 
L 193.017106 51.238059 
L 194.558176 43.007593 
L 196.099247 35.181368 
L 197.255049 30.563022 
L 198.025584 28.188841 
L 198.796119 26.369157 
L 199.566654 25.067312 
L 200.337189 24.233212 
L 201.107724 23.810599 
L 201.878259 23.741908 
L 202.648795 23.971396 
L 203.41933 24.44703 
L 204.575132 25.520004 
L 206.116202 27.414621 
L 208.427807 30.761698 
L 212.66575 36.987468 
L 214.977355 39.995377 
L 217.288961 42.623744 
L 219.600566 44.871015 
L 221.912171 46.765206 
L 224.223776 48.346653 
L 226.535381 49.658543 
L 229.232254 50.903169 
L 231.929127 51.895094 
L 235.011267 52.782174 
L 238.478675 53.536408 
L 242.33135 54.14832 
L 246.954561 54.658468 
L 252.733573 55.066499 
L 260.438924 55.372297 
L 271.611682 55.571948 
L 287.407651 55.663055 
L 287.792919 55.306445 
L 288.178186 54.352032 
L 288.948721 51.237167 
L 290.489791 43.006812 
L 292.030862 35.180684 
L 293.186664 30.562404 
L 293.957199 28.188263 
L 294.727734 26.368616 
L 295.498269 25.066807 
L 296.268804 24.232739 
L 297.039339 23.810156 
L 297.809874 23.741494 
L 298.58041 23.971008 
L 299.350945 24.446668 
L 300.506747 25.519677 
L 302.047817 27.414334 
L 304.359423 30.761463 
L 308.597365 36.987305 
L 310.908971 39.995244 
L 313.220576 42.623635 
L 315.532181 44.870926 
L 317.843786 46.765133 
L 320.155391 48.346593 
L 322.466996 49.658494 
L 325.163869 50.90313 
L 327.860742 51.895063 
L 330.942882 52.78215 
L 334.41029 53.536391 
L 338.262965 54.148307 
L 342.886176 54.65846 
L 348.665188 55.066494 
L 356.370539 55.372294 
L 367.543297 55.571947 
L 383.724534 55.664075 
L 384.109801 55.307431 
L 384.495069 54.352987 
L 385.265604 51.238059 
L 386.806674 43.007593 
L 388.347744 35.181368 
L 389.503547 30.563022 
L 390.274082 28.188841 
L 391.044617 26.369157 
L 391.815152 25.067312 
L 392.585687 24.233212 
L 393.356222 23.810599 
L 394.126757 23.741908 
L 394.897292 23.971396 
L 395.667827 24.44703 
L 396.82363 25.520004 
L 398.3647 27.414621 
L 400.676305 30.761698 
L 404.914248 36.987468 
L 407.225853 39.995377 
L 409.537458 42.623744 
L 411.849063 44.871015 
L 414.160669 46.765206 
L 416.472274 48.346653 
L 418.783879 49.658543 
L 421.480752 50.903169 
L 424.177624 51.895094 
L 427.259765 52.782174 
L 430.727172 53.536408 
L 434.579848 54.14832 
L 439.203058 54.658468 
L 444.982071 55.066499 
L 452.687422 55.372297 
L 463.86018 55.571948 
L 479.656149 55.663055 
L 480.041416 55.306445 
L 480.426684 54.352032 
L 481.197219 51.237167 
L 482.738289 43.006812 
L 484.279359 35.180684 
L 485.435162 30.562404 
L 486.205697 28.188263 
L 486.976232 26.368616 
L 487.746767 25.066807 
L 488.517302 24.232739 
L 489.287837 23.810156 
L 490.058372 23.741494 
L 490.828907 23.971008 
L 491.599442 24.446668 
L 492.755245 25.519677 
L 494.296315 27.414334 
L 496.60792 30.761463 
L 500.845863 36.987305 
L 503.157468 39.995244 
L 505.469073 42.623635 
L 507.780678 44.870926 
L 510.092284 46.765133 
L 512.403889 48.346593 
L 514.715494 49.658494 
L 517.412367 50.90313 
L 520.109239 51.895063 
L 523.19138 52.78215 
L 526.658787 53.536391 
L 530.511463 54.148307 
L 535.134673 54.65846 
L 540.913686 55.066494 
L 542.454756 55.144974 
L 542.454756 55.144974 
" clip-path="url(#p63dfc3a4c5)" style="fill: none; stroke: #1f77b4; stroke-width: 1.5; stroke-linecap: square"/>
   </g>
   <g id="line2d_13">
    <path d="M 79.748452 98.034842 
L 95.544421 98.008189 
L 96.314956 97.772886 
L 97.856026 96.990646 
L 100.167632 95.827944 
L 101.708702 95.296414 
L 103.249772 94.984275 
L 105.176109 94.851117 
L 107.487715 94.953794 
L 110.955122 95.38203 
L 120.586811 96.698884 
L 126.365824 97.21013 
L 133.300639 97.583549 
L 142.54706 97.838359 
L 157.187226 97.988351 
L 190.320234 98.043738 
L 191.861304 98.008389 
L 192.631839 97.773074 
L 194.172909 96.990811 
L 196.484514 95.828078 
L 198.025584 95.296531 
L 199.566654 94.984378 
L 201.492992 94.851204 
L 203.804597 94.953865 
L 207.272005 95.382083 
L 216.903693 96.698906 
L 222.682706 97.210144 
L 229.617522 97.583557 
L 238.863942 97.838362 
L 253.504109 97.988352 
L 286.637116 98.043738 
L 287.792919 98.008292 
L 288.563454 97.772981 
L 290.104524 96.99073 
L 292.416129 95.828012 
L 293.957199 95.296473 
L 295.498269 94.984328 
L 297.424607 94.851161 
L 298.195142 94.85988 
L 298.58041 66.33456 
L 299.350945 66.809534 
L 300.506747 67.881596 
L 302.047817 69.775131 
L 304.359423 73.120833 
L 308.597365 79.344699 
L 310.908971 82.351829 
L 313.220576 84.979558 
L 315.532181 87.226307 
L 317.843786 89.120072 
L 320.155391 90.701169 
L 322.466996 92.012773 
L 325.163869 93.25713 
L 327.860742 94.248843 
L 330.942882 95.135733 
L 334.41029 95.889807 
L 338.262965 96.501589 
L 342.886176 97.011629 
L 348.665188 97.419573 
L 356.370539 97.725306 
L 367.543297 97.924915 
L 383.724534 98.017023 
L 384.109801 97.660373 
L 384.495069 96.705928 
L 385.265604 93.591 
L 386.806674 85.360535 
L 388.347744 77.534309 
L 389.503547 72.915964 
L 390.274082 70.541782 
L 391.044617 68.722098 
L 391.815152 67.420254 
L 392.585687 66.586154 
L 393.356222 66.16354 
L 394.126757 66.094849 
L 394.512025 66.175675 
L 394.897292 94.864525 
L 397.594165 95.111081 
L 403.758445 96.008558 
L 409.537458 96.737137 
L 415.316471 97.235131 
L 422.251287 97.597693 
L 431.497707 97.844775 
L 446.137874 97.990159 
L 479.656149 98.043946 
L 480.426684 97.91285 
L 481.582486 97.408403 
L 485.049894 95.673914 
L 486.590964 95.198747 
L 488.132034 94.937121 
L 490.058372 94.851796 
L 492.369977 94.989766 
L 496.222653 95.495986 
L 504.698538 96.656707 
L 510.477551 97.182573 
L 517.412367 97.56796 
L 526.658787 97.831286 
L 540.913686 97.984296 
L 542.454756 97.992144 
L 542.454756 97.992144 
" clip-path="url(#p63dfc3a4c5)" style="fill: none; stroke: #ff7f0e; stroke-width: 1.5; stroke-linecap: square"/>
   </g>
   <g id="line2d_14">
    <path d="M 79.748452 140.368875 
L 107.102447 140.361331 
L 107.872982 140.126015 
L 109.414052 139.343752 
L 111.725657 138.181019 
L 113.266728 137.649472 
L 114.807798 137.337319 
L 116.734135 137.204145 
L 119.04574 137.306806 
L 122.513148 137.735024 
L 132.144837 139.051848 
L 137.923849 139.563085 
L 144.858665 139.936498 
L 154.105086 140.191303 
L 168.745252 140.341293 
L 201.878259 140.396679 
L 203.034062 140.361233 
L 203.804597 140.125923 
L 205.345667 139.343671 
L 207.657272 138.180953 
L 209.198343 137.649415 
L 210.739413 137.337269 
L 212.66575 137.204102 
L 214.977355 137.306771 
L 218.444763 137.734998 
L 228.076452 139.051836 
L 233.855464 139.563078 
L 240.79028 139.936494 
L 250.036701 140.191302 
L 264.676867 140.341293 
L 297.809874 140.396679 
L 298.965677 140.396996 
L 299.350945 140.039458 
L 299.736212 139.084154 
L 300.506747 135.967593 
L 302.047817 127.734169 
L 303.588887 119.905355 
L 304.74469 115.285284 
L 305.515225 112.910044 
L 306.28576 111.08937 
L 307.056295 109.786599 
L 307.82683 108.951633 
L 308.597365 108.528209 
L 309.3679 108.458761 
L 310.138435 108.68754 
L 310.908971 109.162511 
L 312.064773 110.23457 
L 313.605843 112.128101 
L 315.917448 115.473798 
L 320.155391 121.697656 
L 322.466996 124.704784 
L 324.778602 127.33251 
L 327.090207 129.579257 
L 329.401812 131.47302 
L 331.713417 133.054116 
L 334.025022 134.365719 
L 336.721895 135.610075 
L 339.418768 136.601787 
L 342.500908 137.488676 
L 345.968316 138.24275 
L 349.820991 138.854531 
L 354.444201 139.364571 
L 360.223214 139.772515 
L 367.928565 140.078248 
L 379.101323 140.277856 
L 394.897292 140.368944 
L 395.667827 140.239648 
L 396.82363 139.737693 
L 400.291038 138.009344 
L 401.832108 137.536367 
L 403.373178 137.276658 
L 405.299515 137.193395 
L 407.611121 137.333424 
L 411.463796 137.84228 
L 419.554414 138.963087 
L 425.333427 139.505104 
L 431.882975 139.887025 
L 440.744128 140.161015 
L 454.228492 140.32567 
L 482.353021 140.393509 
L 491.599442 140.361331 
L 492.369977 140.126015 
L 493.911047 139.343752 
L 496.222653 138.181019 
L 497.763723 137.649472 
L 499.304793 137.337319 
L 501.23113 137.204145 
L 503.542736 137.306806 
L 507.010143 137.735024 
L 516.641832 139.051848 
L 522.420845 139.563085 
L 529.35566 139.936498 
L 538.602081 140.191303 
L 542.454756 140.250493 
L 542.454756 140.250493 
" clip-path="url(#p63dfc3a4c5)" style="fill: none; stroke: #2ca02c; stroke-width: 1.5; stroke-linecap: square"/>
   </g>
   <g id="line2d_15">
    <path d="M 79.748452 182.628439 
L 99.782364 182.731018 
L 106.71718 182.740924 
L 107.102447 182.598264 
L 107.487715 182.216489 
L 108.25825 180.970518 
L 109.79932 177.678331 
L 111.34039 174.547841 
L 112.496192 172.700503 
L 113.651995 171.359917 
L 114.42253 170.737862 
L 115.193065 170.313387 
L 115.9636 170.064926 
L 117.119403 169.972057 
L 118.275205 170.147902 
L 119.816276 170.683296 
L 121.742613 171.652739 
L 125.980556 174.168104 
L 129.447964 176.088694 
L 132.530104 177.524792 
L 135.612244 178.691209 
L 138.694385 179.615926 
L 142.161792 180.416867 
L 146.014468 181.074316 
L 150.637678 181.626292 
L 156.416691 182.069535 
L 163.736774 182.390469 
L 174.138997 182.605814 
L 192.246571 182.722325 
L 202.648795 182.740516 
L 203.034062 182.597872 
L 203.41933 182.216107 
L 204.189865 180.970161 
L 205.730935 177.678019 
L 207.272005 174.547568 
L 208.427807 172.700256 
L 209.58361 171.359693 
L 210.354145 170.737653 
L 211.12468 170.313192 
L 211.895215 170.064743 
L 213.051018 169.971892 
L 214.20682 170.147752 
L 215.747891 170.683165 
L 217.674228 171.652628 
L 221.912171 174.168027 
L 225.379579 176.088637 
L 228.461719 177.524748 
L 231.543859 178.691176 
L 234.626 179.6159 
L 238.093407 180.416848 
L 241.946083 181.074303 
L 246.569293 181.626283 
L 252.348306 182.06953 
L 259.668389 182.390466 
L 270.070612 182.605813 
L 288.178186 182.722325 
L 298.965677 182.740924 
L 299.350945 182.383684 
L 299.736212 181.428667 
L 300.506747 178.31265 
L 302.047817 170.080212 
L 303.588887 162.252261 
L 304.74469 157.632765 
L 305.515225 155.257878 
L 306.28576 153.437534 
L 307.056295 152.135072 
L 307.82683 151.300395 
L 308.597365 150.877241 
L 309.3679 150.808045 
L 310.138435 151.03706 
L 310.908971 151.512253 
L 312.064773 152.584617 
L 313.605843 154.478509 
L 315.917448 157.824667 
L 320.155391 164.049162 
L 322.466996 167.05655 
L 324.778602 169.68449 
L 327.090207 171.931412 
L 329.401812 173.825317 
L 331.713417 175.40653 
L 334.025022 176.718229 
L 336.721895 177.962675 
L 339.418768 178.954458 
L 342.500908 179.841411 
L 345.968316 180.595538 
L 349.820991 181.207362 
L 354.444201 181.717439 
L 360.223214 182.125412 
L 367.928565 182.431166 
L 379.101323 182.630789 
L 394.897292 182.721883 
L 395.28256 182.579851 
L 395.667827 182.198678 
L 396.438362 180.953858 
L 397.979432 177.663755 
L 399.520502 174.535088 
L 400.676305 172.688966 
L 401.832108 171.34948 
L 402.602643 170.728099 
L 403.373178 170.304255 
L 404.143713 170.056384 
L 405.299515 169.96433 
L 406.455318 170.140911 
L 407.996388 170.677179 
L 409.922726 171.647563 
L 414.160669 174.16452 
L 417.628076 176.08604 
L 420.710217 177.52276 
L 423.792357 178.689654 
L 426.874497 179.614735 
L 430.341905 180.415986 
L 434.19458 181.073685 
L 438.817791 181.625869 
L 444.596803 182.069279 
L 451.916887 182.390333 
L 462.31911 182.605759 
L 480.426684 182.722314 
L 491.214175 182.74092 
L 491.599442 182.598267 
L 491.98471 182.216489 
L 492.755245 180.970518 
L 494.296315 177.678331 
L 495.837385 174.547841 
L 496.993188 172.700503 
L 498.14899 171.359917 
L 498.919525 170.737862 
L 499.69006 170.313387 
L 500.460595 170.064926 
L 501.616398 169.972057 
L 502.772201 170.147902 
L 504.313271 170.683296 
L 506.239608 171.652739 
L 510.477551 174.168104 
L 513.944959 176.088694 
L 517.027099 177.524792 
L 520.109239 178.691209 
L 523.19138 179.615926 
L 526.658787 180.416867 
L 530.511463 181.074316 
L 535.134673 181.626292 
L 540.913686 182.069535 
L 542.454756 182.154913 
L 542.454756 182.154913 
" clip-path="url(#p63dfc3a4c5)" style="fill: none; stroke: #d62728; stroke-width: 1.5; stroke-linecap: square"/>
   </g>
   <g id="patch_5">
    <path d="M 80.085561 191.223529 
L 80.085561 13.341176 
" style="fill: none; stroke: #000000; stroke-width: 0.8; stroke-linejoin: miter; stroke-linecap: square"/>
   </g>
   <g id="patch_6">
    <path d="M 542.117647 191.223529 
L 542.117647 13.341176 
" style="fill: none; stroke: #000000; stroke-width: 0.8; stroke-linejoin: miter; stroke-linecap: square"/>
   </g>
   <g id="patch_7">
    <path d="M 80.085561 191.223529 
L 542.117647 191.223529 
" style="fill: none; stroke: #000000; stroke-width: 0.8; stroke-linejoin: miter; stroke-linecap: square"/>
   </g>
   <g id="patch_8">
    <path d="M 80.085561 13.341176 
L 542.117647 13.341176 
" style="fill: none; stroke: #000000; stroke-width: 0.8; stroke-linejoin: miter; stroke-linecap: square"/>
   </g>
  </g>
 </g>
 <defs>
  <clipPath id="p63dfc3a4c5">
   <rect x="80.085561" y="13.341176" width="462.032086" height="177.882353"/>
  </clipPath>
 </defs>
</svg>
