<?xml version="1.0" encoding="utf-8" standalone="no"?>
<!DOCTYPE svg PUBLIC "-//W3C//DTD SVG 1.1//EN"
  "http://www.w3.org/Graphics/SVG/1.1/DTD/svg11.dtd">
<svg xmlns:xlink="http://www.w3.org/1999/xlink" width="576pt" height="360pt" viewBox="0 0 576 360" xmlns="http://www.w3.org/2000/svg" version="1.1">
 <metadata>
  <rdf:RDF xmlns:dc="http://purl.org/dc/elements/1.1/" xmlns:cc="http://creativecommons.org/ns#" xmlns:rdf="http://www.w3.org/1999/02/22-rdf-syntax-ns#">
   <cc:Work>
    <dc:type rdf:resource="http://purl.org/dc/dcmitype/StillImage"/>
    <dc:date>2023-03-13T14:17:56.362884</dc:date>
    <dc:format>image/svg+xml</dc:format>
    <dc:creator>
     <cc:Agent>
      <dc:title>Matplotlib v3.7.1, https://matplotlib.org/</dc:title>
     </cc:Agent>
    </dc:creator>
   </cc:Work>
  </rdf:RDF>
 </metadata>
 <defs>
  <style type="text/css">*{stroke-linejoin: round; stroke-linecap: butt}</style>
 </defs>
 <g id="figure_1">
  <g id="patch_1">
   <path d="M 0 360 
L 576 360 
L 576 0 
L 0 0 
L 0 360 
z
" style="fill: none"/>
  </g>
  <g id="axes_1">
   <g id="patch_2">
    <path d="M 102.22 151.28 
L 511.697143 151.28 
L 511.697143 26.88 
L 102.22 26.88 
L 102.22 151.28 
z
" style="fill: none"/>
   </g>
   <g id="LineCollection_1">
    <path d="M 176.315864 151.28 
L 176.315864 50.803077 
" clip-path="url(#p62e99b48a9)" style="fill: none; stroke-dasharray: 0.8,1.32; stroke-dashoffset: 0; stroke: #1f77b4; stroke-width: 0.8"/>
    <path d="M 351.806068 151.28 
L 351.806068 50.803077 
" clip-path="url(#p62e99b48a9)" style="fill: none; stroke-dasharray: 0.8,1.32; stroke-dashoffset: 0; stroke: #1f77b4; stroke-width: 0.8"/>
   </g>
   <g id="LineCollection_2">
    <path d="M 121.718912 151.28 
L 121.718912 74.726154 
" clip-path="url(#p62e99b48a9)" style="fill: none; stroke-dasharray: 0.8,1.32; stroke-dashoffset: 0; stroke: #1f77b4; stroke-width: 0.8"/>
    <path d="M 180.215646 151.28 
L 180.215646 74.726154 
" clip-path="url(#p62e99b48a9)" style="fill: none; stroke-dasharray: 0.8,1.32; stroke-dashoffset: 0; stroke: #1f77b4; stroke-width: 0.8"/>
    <path d="M 238.712381 151.28 
L 238.712381 74.726154 
" clip-path="url(#p62e99b48a9)" style="fill: none; stroke-dasharray: 0.8,1.32; stroke-dashoffset: 0; stroke: #1f77b4; stroke-width: 0.8"/>
    <path d="M 297.209116 151.28 
L 297.209116 74.726154 
" clip-path="url(#p62e99b48a9)" style="fill: none; stroke-dasharray: 0.8,1.32; stroke-dashoffset: 0; stroke: #1f77b4; stroke-width: 0.8"/>
    <path d="M 355.70585 151.28 
L 355.70585 74.726154 
" clip-path="url(#p62e99b48a9)" style="fill: none; stroke-dasharray: 0.8,1.32; stroke-dashoffset: 0; stroke: #1f77b4; stroke-width: 0.8"/>
    <path d="M 414.202585 151.28 
L 414.202585 74.726154 
" clip-path="url(#p62e99b48a9)" style="fill: none; stroke-dasharray: 0.8,1.32; stroke-dashoffset: 0; stroke: #1f77b4; stroke-width: 0.8"/>
    <path d="M 472.69932 151.28 
L 472.69932 74.726154 
" clip-path="url(#p62e99b48a9)" style="fill: none; stroke-dasharray: 0.8,1.32; stroke-dashoffset: 0; stroke: #1f77b4; stroke-width: 0.8"/>
   </g>
   <g id="LineCollection_3">
    <path d="M 137.318041 151.28 
L 137.318041 98.649231 
" clip-path="url(#p62e99b48a9)" style="fill: none; stroke-dasharray: 0.8,1.32; stroke-dashoffset: 0; stroke: #1f77b4; stroke-width: 0.8"/>
    <path d="M 425.901932 151.28 
L 425.901932 98.649231 
" clip-path="url(#p62e99b48a9)" style="fill: none; stroke-dasharray: 0.8,1.32; stroke-dashoffset: 0; stroke: #1f77b4; stroke-width: 0.8"/>
   </g>
   <g id="LineCollection_4">
    <path d="M 141.217823 151.28 
L 141.217823 122.572308 
" clip-path="url(#p62e99b48a9)" style="fill: none; stroke-dasharray: 0.8,1.32; stroke-dashoffset: 0; stroke: #1f77b4; stroke-width: 0.8"/>
    <path d="M 285.509769 151.28 
L 285.509769 122.572308 
" clip-path="url(#p62e99b48a9)" style="fill: none; stroke-dasharray: 0.8,1.32; stroke-dashoffset: 0; stroke: #1f77b4; stroke-width: 0.8"/>
    <path d="M 429.801714 151.28 
L 429.801714 122.572308 
" clip-path="url(#p62e99b48a9)" style="fill: none; stroke-dasharray: 0.8,1.32; stroke-dashoffset: 0; stroke: #1f77b4; stroke-width: 0.8"/>
   </g>
   <g id="patch_3">
    <path d="M 181.33368 144.103077 
Q 209.464014 144.103077 237.594347 144.103077 
" style="fill: none; stroke: #000000; stroke-linecap: round"/>
    <path d="M 185.33368 146.103077 
L 181.33368 144.103077 
L 185.33368 142.103077 
" style="fill: none; stroke: #000000; stroke-linecap: round"/>
    <path d="M 233.594347 142.103077 
L 237.594347 144.103077 
L 233.594347 146.103077 
" style="fill: none; stroke: #000000; stroke-linecap: round"/>
   </g>
   <g id="patch_4">
    <path d="M 239.830415 144.103077 
Q 262.111075 144.103077 284.391735 144.103077 
" style="fill: none; stroke: #000000; stroke-linecap: round"/>
    <path d="M 243.830415 146.103077 
L 239.830415 144.103077 
L 243.830415 142.103077 
" style="fill: none; stroke: #000000; stroke-linecap: round"/>
    <path d="M 280.391735 142.103077 
L 284.391735 144.103077 
L 280.391735 146.103077 
" style="fill: none; stroke: #000000; stroke-linecap: round"/>
   </g>
   <g id="patch_5">
    <path d="M 286.627803 144.103077 
Q 291.359442 144.103077 296.091082 144.103077 
" style="fill: none; stroke: #000000; stroke-linecap: round"/>
    <path d="M 290.627803 146.103077 
L 286.627803 144.103077 
L 290.627803 142.103077 
" style="fill: none; stroke: #000000; stroke-linecap: round"/>
    <path d="M 292.091082 142.103077 
L 296.091082 144.103077 
L 292.091082 146.103077 
" style="fill: none; stroke: #000000; stroke-linecap: round"/>
   </g>
   <g id="patch_6">
    <path d="M 298.32715 144.103077 
Q 324.507592 144.103077 350.688034 144.103077 
" style="fill: none; stroke: #000000; stroke-linecap: round"/>
    <path d="M 302.32715 146.103077 
L 298.32715 144.103077 
L 302.32715 142.103077 
" style="fill: none; stroke: #000000; stroke-linecap: round"/>
    <path d="M 346.688034 142.103077 
L 350.688034 144.103077 
L 346.688034 146.103077 
" style="fill: none; stroke: #000000; stroke-linecap: round"/>
   </g>
   <g id="patch_7">
    <path d="M 356.823884 144.103077 
Q 384.954218 144.103077 413.084551 144.103077 
" style="fill: none; stroke: #000000; stroke-linecap: round"/>
    <path d="M 360.823884 146.103077 
L 356.823884 144.103077 
L 360.823884 142.103077 
" style="fill: none; stroke: #000000; stroke-linecap: round"/>
    <path d="M 409.084551 142.103077 
L 413.084551 144.103077 
L 409.084551 146.103077 
" style="fill: none; stroke: #000000; stroke-linecap: round"/>
   </g>
   <g id="patch_8">
    <path d="M 415.320619 144.103077 
Q 420.052259 144.103077 424.783898 144.103077 
" style="fill: none; stroke: #000000; stroke-linecap: round"/>
    <path d="M 419.320619 146.103077 
L 415.320619 144.103077 
L 419.320619 142.103077 
" style="fill: none; stroke: #000000; stroke-linecap: round"/>
    <path d="M 420.783898 142.103077 
L 424.783898 144.103077 
L 420.783898 146.103077 
" style="fill: none; stroke: #000000; stroke-linecap: round"/>
   </g>
   <g id="patch_9">
    <path d="M 430.919748 144.103077 
Q 451.250517 144.103077 471.581286 144.103077 
" style="fill: none; stroke: #000000; stroke-linecap: round"/>
    <path d="M 434.919748 146.103077 
L 430.919748 144.103077 
L 434.919748 142.103077 
" style="fill: none; stroke: #000000; stroke-linecap: round"/>
    <path d="M 467.581286 142.103077 
L 471.581286 144.103077 
L 467.581286 146.103077 
" style="fill: none; stroke: #000000; stroke-linecap: round"/>
   </g>
   <g id="patch_10">
    <path d="M 473.817354 144.103077 
Q 492.198231 144.103077 511.697143 144.103077 
" style="fill: none; stroke: #000000; stroke-linecap: round"/>
    <path d="M 477.817354 146.103077 
L 473.817354 144.103077 
L 477.817354 142.103077 
" style="fill: none; stroke: #000000; stroke-linecap: round"/>
   </g>
   <g id="matplotlib.axis_1">
    <g id="xtick_1">
     <g id="line2d_1">
      <defs>
       <path id="me57bf10f47" d="M 0 0 
L 0 3.5 
" style="stroke: #000000; stroke-width: 0.8"/>
      </defs>
      <g>
       <use xlink:href="#me57bf10f47" x="102.22" y="151.28" style="stroke: #000000; stroke-width: 0.8"/>
      </g>
     </g>
     <g id="text_1">
      <!-- 0 -->
      <g transform="translate(99.03875 165.878438) scale(0.1 -0.1)">
       <defs>
        <path id="DejaVuSans-30" d="M 2034 4250 
Q 1547 4250 1301 3770 
Q 1056 3291 1056 2328 
Q 1056 1369 1301 889 
Q 1547 409 2034 409 
Q 2525 409 2770 889 
Q 3016 1369 3016 2328 
Q 3016 3291 2770 3770 
Q 2525 4250 2034 4250 
z
M 2034 4750 
Q 2819 4750 3233 4129 
Q 3647 3509 3647 2328 
Q 3647 1150 3233 529 
Q 2819 -91 2034 -91 
Q 1250 -91 836 529 
Q 422 1150 422 2328 
Q 422 3509 836 4129 
Q 1250 4750 2034 4750 
z
" transform="scale(0.015625)"/>
       </defs>
       <use xlink:href="#DejaVuSans-30"/>
      </g>
     </g>
    </g>
    <g id="xtick_2">
     <g id="line2d_2">
      <g>
       <use xlink:href="#me57bf10f47" x="180.215646" y="151.28" style="stroke: #000000; stroke-width: 0.8"/>
      </g>
     </g>
     <g id="text_2">
      <!-- 200 -->
      <g transform="translate(170.671896 165.878438) scale(0.1 -0.1)">
       <defs>
        <path id="DejaVuSans-32" d="M 1228 531 
L 3431 531 
L 3431 0 
L 469 0 
L 469 531 
Q 828 903 1448 1529 
Q 2069 2156 2228 2338 
Q 2531 2678 2651 2914 
Q 2772 3150 2772 3378 
Q 2772 3750 2511 3984 
Q 2250 4219 1831 4219 
Q 1534 4219 1204 4116 
Q 875 4013 500 3803 
L 500 4441 
Q 881 4594 1212 4672 
Q 1544 4750 1819 4750 
Q 2544 4750 2975 4387 
Q 3406 4025 3406 3419 
Q 3406 3131 3298 2873 
Q 3191 2616 2906 2266 
Q 2828 2175 2409 1742 
Q 1991 1309 1228 531 
z
" transform="scale(0.015625)"/>
       </defs>
       <use xlink:href="#DejaVuSans-32"/>
       <use xlink:href="#DejaVuSans-30" x="63.623047"/>
       <use xlink:href="#DejaVuSans-30" x="127.246094"/>
      </g>
     </g>
    </g>
    <g id="xtick_3">
     <g id="line2d_3">
      <g>
       <use xlink:href="#me57bf10f47" x="258.211293" y="151.28" style="stroke: #000000; stroke-width: 0.8"/>
      </g>
     </g>
     <g id="text_3">
      <!-- 400 -->
      <g transform="translate(248.667543 165.878438) scale(0.1 -0.1)">
       <defs>
        <path id="DejaVuSans-34" d="M 2419 4116 
L 825 1625 
L 2419 1625 
L 2419 4116 
z
M 2253 4666 
L 3047 4666 
L 3047 1625 
L 3713 1625 
L 3713 1100 
L 3047 1100 
L 3047 0 
L 2419 0 
L 2419 1100 
L 313 1100 
L 313 1709 
L 2253 4666 
z
" transform="scale(0.015625)"/>
       </defs>
       <use xlink:href="#DejaVuSans-34"/>
       <use xlink:href="#DejaVuSans-30" x="63.623047"/>
       <use xlink:href="#DejaVuSans-30" x="127.246094"/>
      </g>
     </g>
    </g>
    <g id="xtick_4">
     <g id="line2d_4">
      <g>
       <use xlink:href="#me57bf10f47" x="336.206939" y="151.28" style="stroke: #000000; stroke-width: 0.8"/>
      </g>
     </g>
     <g id="text_4">
      <!-- 600 -->
      <g transform="translate(326.663189 165.878438) scale(0.1 -0.1)">
       <defs>
        <path id="DejaVuSans-36" d="M 2113 2584 
Q 1688 2584 1439 2293 
Q 1191 2003 1191 1497 
Q 1191 994 1439 701 
Q 1688 409 2113 409 
Q 2538 409 2786 701 
Q 3034 994 3034 1497 
Q 3034 2003 2786 2293 
Q 2538 2584 2113 2584 
z
M 3366 4563 
L 3366 3988 
Q 3128 4100 2886 4159 
Q 2644 4219 2406 4219 
Q 1781 4219 1451 3797 
Q 1122 3375 1075 2522 
Q 1259 2794 1537 2939 
Q 1816 3084 2150 3084 
Q 2853 3084 3261 2657 
Q 3669 2231 3669 1497 
Q 3669 778 3244 343 
Q 2819 -91 2113 -91 
Q 1303 -91 875 529 
Q 447 1150 447 2328 
Q 447 3434 972 4092 
Q 1497 4750 2381 4750 
Q 2619 4750 2861 4703 
Q 3103 4656 3366 4563 
z
" transform="scale(0.015625)"/>
       </defs>
       <use xlink:href="#DejaVuSans-36"/>
       <use xlink:href="#DejaVuSans-30" x="63.623047"/>
       <use xlink:href="#DejaVuSans-30" x="127.246094"/>
      </g>
     </g>
    </g>
    <g id="xtick_5">
     <g id="line2d_5">
      <g>
       <use xlink:href="#me57bf10f47" x="414.202585" y="151.28" style="stroke: #000000; stroke-width: 0.8"/>
      </g>
     </g>
     <g id="text_5">
      <!-- 800 -->
      <g transform="translate(404.658835 165.878438) scale(0.1 -0.1)">
       <defs>
        <path id="DejaVuSans-38" d="M 2034 2216 
Q 1584 2216 1326 1975 
Q 1069 1734 1069 1313 
Q 1069 891 1326 650 
Q 1584 409 2034 409 
Q 2484 409 2743 651 
Q 3003 894 3003 1313 
Q 3003 1734 2745 1975 
Q 2488 2216 2034 2216 
z
M 1403 2484 
Q 997 2584 770 2862 
Q 544 3141 544 3541 
Q 544 4100 942 4425 
Q 1341 4750 2034 4750 
Q 2731 4750 3128 4425 
Q 3525 4100 3525 3541 
Q 3525 3141 3298 2862 
Q 3072 2584 2669 2484 
Q 3125 2378 3379 2068 
Q 3634 1759 3634 1313 
Q 3634 634 3220 271 
Q 2806 -91 2034 -91 
Q 1263 -91 848 271 
Q 434 634 434 1313 
Q 434 1759 690 2068 
Q 947 2378 1403 2484 
z
M 1172 3481 
Q 1172 3119 1398 2916 
Q 1625 2713 2034 2713 
Q 2441 2713 2670 2916 
Q 2900 3119 2900 3481 
Q 2900 3844 2670 4047 
Q 2441 4250 2034 4250 
Q 1625 4250 1398 4047 
Q 1172 3844 1172 3481 
z
" transform="scale(0.015625)"/>
       </defs>
       <use xlink:href="#DejaVuSans-38"/>
       <use xlink:href="#DejaVuSans-30" x="63.623047"/>
       <use xlink:href="#DejaVuSans-30" x="127.246094"/>
      </g>
     </g>
    </g>
    <g id="xtick_6">
     <g id="line2d_6">
      <g>
       <use xlink:href="#me57bf10f47" x="492.198231" y="151.28" style="stroke: #000000; stroke-width: 0.8"/>
      </g>
     </g>
     <g id="text_6">
      <!-- 1000 -->
      <g transform="translate(479.473231 165.878438) scale(0.1 -0.1)">
       <defs>
        <path id="DejaVuSans-31" d="M 794 531 
L 1825 531 
L 1825 4091 
L 703 3866 
L 703 4441 
L 1819 4666 
L 2450 4666 
L 2450 531 
L 3481 531 
L 3481 0 
L 794 0 
L 794 531 
z
" transform="scale(0.015625)"/>
       </defs>
       <use xlink:href="#DejaVuSans-31"/>
       <use xlink:href="#DejaVuSans-30" x="63.623047"/>
       <use xlink:href="#DejaVuSans-30" x="127.246094"/>
       <use xlink:href="#DejaVuSans-30" x="190.869141"/>
      </g>
     </g>
    </g>
   </g>
   <g id="matplotlib.axis_2">
    <g id="ytick_1">
     <g id="line2d_7">
      <defs>
       <path id="m86468b31d3" d="M 0 0 
L -3.5 0 
" style="stroke: #000000; stroke-width: 0.8"/>
      </defs>
      <g>
       <use xlink:href="#m86468b31d3" x="102.22" y="41.233846" style="stroke: #000000; stroke-width: 0.8"/>
      </g>
     </g>
     <g id="text_7">
      <!-- sync trigger #0 -->
      <g transform="translate(17.387187 45.033065) scale(0.1 -0.1)">
       <defs>
        <path id="DejaVuSans-73" d="M 2834 3397 
L 2834 2853 
Q 2591 2978 2328 3040 
Q 2066 3103 1784 3103 
Q 1356 3103 1142 2972 
Q 928 2841 928 2578 
Q 928 2378 1081 2264 
Q 1234 2150 1697 2047 
L 1894 2003 
Q 2506 1872 2764 1633 
Q 3022 1394 3022 966 
Q 3022 478 2636 193 
Q 2250 -91 1575 -91 
Q 1294 -91 989 -36 
Q 684 19 347 128 
L 347 722 
Q 666 556 975 473 
Q 1284 391 1588 391 
Q 1994 391 2212 530 
Q 2431 669 2431 922 
Q 2431 1156 2273 1281 
Q 2116 1406 1581 1522 
L 1381 1569 
Q 847 1681 609 1914 
Q 372 2147 372 2553 
Q 372 3047 722 3315 
Q 1072 3584 1716 3584 
Q 2034 3584 2315 3537 
Q 2597 3491 2834 3397 
z
" transform="scale(0.015625)"/>
        <path id="DejaVuSans-79" d="M 2059 -325 
Q 1816 -950 1584 -1140 
Q 1353 -1331 966 -1331 
L 506 -1331 
L 506 -850 
L 844 -850 
Q 1081 -850 1212 -737 
Q 1344 -625 1503 -206 
L 1606 56 
L 191 3500 
L 800 3500 
L 1894 763 
L 2988 3500 
L 3597 3500 
L 2059 -325 
z
" transform="scale(0.015625)"/>
        <path id="DejaVuSans-6e" d="M 3513 2113 
L 3513 0 
L 2938 0 
L 2938 2094 
Q 2938 2591 2744 2837 
Q 2550 3084 2163 3084 
Q 1697 3084 1428 2787 
Q 1159 2491 1159 1978 
L 1159 0 
L 581 0 
L 581 3500 
L 1159 3500 
L 1159 2956 
Q 1366 3272 1645 3428 
Q 1925 3584 2291 3584 
Q 2894 3584 3203 3211 
Q 3513 2838 3513 2113 
z
" transform="scale(0.015625)"/>
        <path id="DejaVuSans-63" d="M 3122 3366 
L 3122 2828 
Q 2878 2963 2633 3030 
Q 2388 3097 2138 3097 
Q 1578 3097 1268 2742 
Q 959 2388 959 1747 
Q 959 1106 1268 751 
Q 1578 397 2138 397 
Q 2388 397 2633 464 
Q 2878 531 3122 666 
L 3122 134 
Q 2881 22 2623 -34 
Q 2366 -91 2075 -91 
Q 1284 -91 818 406 
Q 353 903 353 1747 
Q 353 2603 823 3093 
Q 1294 3584 2113 3584 
Q 2378 3584 2631 3529 
Q 2884 3475 3122 3366 
z
" transform="scale(0.015625)"/>
        <path id="DejaVuSans-20" transform="scale(0.015625)"/>
        <path id="DejaVuSans-74" d="M 1172 4494 
L 1172 3500 
L 2356 3500 
L 2356 3053 
L 1172 3053 
L 1172 1153 
Q 1172 725 1289 603 
Q 1406 481 1766 481 
L 2356 481 
L 2356 0 
L 1766 0 
Q 1100 0 847 248 
Q 594 497 594 1153 
L 594 3053 
L 172 3053 
L 172 3500 
L 594 3500 
L 594 4494 
L 1172 4494 
z
" transform="scale(0.015625)"/>
        <path id="DejaVuSans-72" d="M 2631 2963 
Q 2534 3019 2420 3045 
Q 2306 3072 2169 3072 
Q 1681 3072 1420 2755 
Q 1159 2438 1159 1844 
L 1159 0 
L 581 0 
L 581 3500 
L 1159 3500 
L 1159 2956 
Q 1341 3275 1631 3429 
Q 1922 3584 2338 3584 
Q 2397 3584 2469 3576 
Q 2541 3569 2628 3553 
L 2631 2963 
z
" transform="scale(0.015625)"/>
        <path id="DejaVuSans-69" d="M 603 3500 
L 1178 3500 
L 1178 0 
L 603 0 
L 603 3500 
z
M 603 4863 
L 1178 4863 
L 1178 4134 
L 603 4134 
L 603 4863 
z
" transform="scale(0.015625)"/>
        <path id="DejaVuSans-67" d="M 2906 1791 
Q 2906 2416 2648 2759 
Q 2391 3103 1925 3103 
Q 1463 3103 1205 2759 
Q 947 2416 947 1791 
Q 947 1169 1205 825 
Q 1463 481 1925 481 
Q 2391 481 2648 825 
Q 2906 1169 2906 1791 
z
M 3481 434 
Q 3481 -459 3084 -895 
Q 2688 -1331 1869 -1331 
Q 1566 -1331 1297 -1286 
Q 1028 -1241 775 -1147 
L 775 -588 
Q 1028 -725 1275 -790 
Q 1522 -856 1778 -856 
Q 2344 -856 2625 -561 
Q 2906 -266 2906 331 
L 2906 616 
Q 2728 306 2450 153 
Q 2172 0 1784 0 
Q 1141 0 747 490 
Q 353 981 353 1791 
Q 353 2603 747 3093 
Q 1141 3584 1784 3584 
Q 2172 3584 2450 3431 
Q 2728 3278 2906 2969 
L 2906 3500 
L 3481 3500 
L 3481 434 
z
" transform="scale(0.015625)"/>
        <path id="DejaVuSans-65" d="M 3597 1894 
L 3597 1613 
L 953 1613 
Q 991 1019 1311 708 
Q 1631 397 2203 397 
Q 2534 397 2845 478 
Q 3156 559 3463 722 
L 3463 178 
Q 3153 47 2828 -22 
Q 2503 -91 2169 -91 
Q 1331 -91 842 396 
Q 353 884 353 1716 
Q 353 2575 817 3079 
Q 1281 3584 2069 3584 
Q 2775 3584 3186 3129 
Q 3597 2675 3597 1894 
z
M 3022 2063 
Q 3016 2534 2758 2815 
Q 2500 3097 2075 3097 
Q 1594 3097 1305 2825 
Q 1016 2553 972 2059 
L 3022 2063 
z
" transform="scale(0.015625)"/>
        <path id="DejaVuSans-23" d="M 3272 2816 
L 2363 2816 
L 2100 1772 
L 3016 1772 
L 3272 2816 
z
M 2803 4594 
L 2478 3297 
L 3391 3297 
L 3719 4594 
L 4219 4594 
L 3897 3297 
L 4872 3297 
L 4872 2816 
L 3775 2816 
L 3519 1772 
L 4513 1772 
L 4513 1294 
L 3397 1294 
L 3072 0 
L 2572 0 
L 2894 1294 
L 1978 1294 
L 1656 0 
L 1153 0 
L 1478 1294 
L 494 1294 
L 494 1772 
L 1594 1772 
L 1856 2816 
L 850 2816 
L 850 3297 
L 1978 3297 
L 2297 4594 
L 2803 4594 
z
" transform="scale(0.015625)"/>
       </defs>
       <use xlink:href="#DejaVuSans-73"/>
       <use xlink:href="#DejaVuSans-79" x="52.099609"/>
       <use xlink:href="#DejaVuSans-6e" x="111.279297"/>
       <use xlink:href="#DejaVuSans-63" x="174.658203"/>
       <use xlink:href="#DejaVuSans-20" x="229.638672"/>
       <use xlink:href="#DejaVuSans-74" x="261.425781"/>
       <use xlink:href="#DejaVuSans-72" x="300.634766"/>
       <use xlink:href="#DejaVuSans-69" x="341.748047"/>
       <use xlink:href="#DejaVuSans-67" x="369.53125"/>
       <use xlink:href="#DejaVuSans-67" x="433.007812"/>
       <use xlink:href="#DejaVuSans-65" x="496.484375"/>
       <use xlink:href="#DejaVuSans-72" x="558.007812"/>
       <use xlink:href="#DejaVuSans-20" x="599.121094"/>
       <use xlink:href="#DejaVuSans-23" x="630.908203"/>
       <use xlink:href="#DejaVuSans-30" x="714.697266"/>
      </g>
     </g>
    </g>
    <g id="ytick_2">
     <g id="line2d_8">
      <g>
       <use xlink:href="#m86468b31d3" x="102.22" y="65.156923" style="stroke: #000000; stroke-width: 0.8"/>
      </g>
     </g>
     <g id="text_8">
      <!-- next trigger #0 -->
      <g transform="translate(18.196562 68.956142) scale(0.1 -0.1)">
       <defs>
        <path id="DejaVuSans-78" d="M 3513 3500 
L 2247 1797 
L 3578 0 
L 2900 0 
L 1881 1375 
L 863 0 
L 184 0 
L 1544 1831 
L 300 3500 
L 978 3500 
L 1906 2253 
L 2834 3500 
L 3513 3500 
z
" transform="scale(0.015625)"/>
       </defs>
       <use xlink:href="#DejaVuSans-6e"/>
       <use xlink:href="#DejaVuSans-65" x="63.378906"/>
       <use xlink:href="#DejaVuSans-78" x="123.152344"/>
       <use xlink:href="#DejaVuSans-74" x="182.332031"/>
       <use xlink:href="#DejaVuSans-20" x="221.541016"/>
       <use xlink:href="#DejaVuSans-74" x="253.328125"/>
       <use xlink:href="#DejaVuSans-72" x="292.537109"/>
       <use xlink:href="#DejaVuSans-69" x="333.650391"/>
       <use xlink:href="#DejaVuSans-67" x="361.433594"/>
       <use xlink:href="#DejaVuSans-67" x="424.910156"/>
       <use xlink:href="#DejaVuSans-65" x="488.386719"/>
       <use xlink:href="#DejaVuSans-72" x="549.910156"/>
       <use xlink:href="#DejaVuSans-20" x="591.023438"/>
       <use xlink:href="#DejaVuSans-23" x="622.810547"/>
       <use xlink:href="#DejaVuSans-30" x="706.599609"/>
      </g>
     </g>
    </g>
    <g id="ytick_3">
     <g id="line2d_9">
      <g>
       <use xlink:href="#m86468b31d3" x="102.22" y="89.08" style="stroke: #000000; stroke-width: 0.8"/>
      </g>
     </g>
     <g id="text_9">
      <!-- sync trigger #1 -->
      <g transform="translate(17.387187 92.879219) scale(0.1 -0.1)">
       <use xlink:href="#DejaVuSans-73"/>
       <use xlink:href="#DejaVuSans-79" x="52.099609"/>
       <use xlink:href="#DejaVuSans-6e" x="111.279297"/>
       <use xlink:href="#DejaVuSans-63" x="174.658203"/>
       <use xlink:href="#DejaVuSans-20" x="229.638672"/>
       <use xlink:href="#DejaVuSans-74" x="261.425781"/>
       <use xlink:href="#DejaVuSans-72" x="300.634766"/>
       <use xlink:href="#DejaVuSans-69" x="341.748047"/>
       <use xlink:href="#DejaVuSans-67" x="369.53125"/>
       <use xlink:href="#DejaVuSans-67" x="433.007812"/>
       <use xlink:href="#DejaVuSans-65" x="496.484375"/>
       <use xlink:href="#DejaVuSans-72" x="558.007812"/>
       <use xlink:href="#DejaVuSans-20" x="599.121094"/>
       <use xlink:href="#DejaVuSans-23" x="630.908203"/>
       <use xlink:href="#DejaVuSans-31" x="714.697266"/>
      </g>
     </g>
    </g>
    <g id="ytick_4">
     <g id="line2d_10">
      <g>
       <use xlink:href="#m86468b31d3" x="102.22" y="113.003077" style="stroke: #000000; stroke-width: 0.8"/>
      </g>
     </g>
     <g id="text_10">
      <!-- next trigger #1 -->
      <g transform="translate(18.196562 116.802296) scale(0.1 -0.1)">
       <use xlink:href="#DejaVuSans-6e"/>
       <use xlink:href="#DejaVuSans-65" x="63.378906"/>
       <use xlink:href="#DejaVuSans-78" x="123.152344"/>
       <use xlink:href="#DejaVuSans-74" x="182.332031"/>
       <use xlink:href="#DejaVuSans-20" x="221.541016"/>
       <use xlink:href="#DejaVuSans-74" x="253.328125"/>
       <use xlink:href="#DejaVuSans-72" x="292.537109"/>
       <use xlink:href="#DejaVuSans-69" x="333.650391"/>
       <use xlink:href="#DejaVuSans-67" x="361.433594"/>
       <use xlink:href="#DejaVuSans-67" x="424.910156"/>
       <use xlink:href="#DejaVuSans-65" x="488.386719"/>
       <use xlink:href="#DejaVuSans-72" x="549.910156"/>
       <use xlink:href="#DejaVuSans-20" x="591.023438"/>
       <use xlink:href="#DejaVuSans-23" x="622.810547"/>
       <use xlink:href="#DejaVuSans-31" x="706.599609"/>
      </g>
     </g>
    </g>
    <g id="ytick_5">
     <g id="line2d_11">
      <g>
       <use xlink:href="#m86468b31d3" x="102.22" y="136.926154" style="stroke: #000000; stroke-width: 0.8"/>
      </g>
     </g>
     <g id="text_11">
      <!-- active histogram -->
      <g transform="translate(10.952812 140.725373) scale(0.1 -0.1)">
       <defs>
        <path id="DejaVuSans-61" d="M 2194 1759 
Q 1497 1759 1228 1600 
Q 959 1441 959 1056 
Q 959 750 1161 570 
Q 1363 391 1709 391 
Q 2188 391 2477 730 
Q 2766 1069 2766 1631 
L 2766 1759 
L 2194 1759 
z
M 3341 1997 
L 3341 0 
L 2766 0 
L 2766 531 
Q 2569 213 2275 61 
Q 1981 -91 1556 -91 
Q 1019 -91 701 211 
Q 384 513 384 1019 
Q 384 1609 779 1909 
Q 1175 2209 1959 2209 
L 2766 2209 
L 2766 2266 
Q 2766 2663 2505 2880 
Q 2244 3097 1772 3097 
Q 1472 3097 1187 3025 
Q 903 2953 641 2809 
L 641 3341 
Q 956 3463 1253 3523 
Q 1550 3584 1831 3584 
Q 2591 3584 2966 3190 
Q 3341 2797 3341 1997 
z
" transform="scale(0.015625)"/>
        <path id="DejaVuSans-76" d="M 191 3500 
L 800 3500 
L 1894 563 
L 2988 3500 
L 3597 3500 
L 2284 0 
L 1503 0 
L 191 3500 
z
" transform="scale(0.015625)"/>
        <path id="DejaVuSans-68" d="M 3513 2113 
L 3513 0 
L 2938 0 
L 2938 2094 
Q 2938 2591 2744 2837 
Q 2550 3084 2163 3084 
Q 1697 3084 1428 2787 
Q 1159 2491 1159 1978 
L 1159 0 
L 581 0 
L 581 4863 
L 1159 4863 
L 1159 2956 
Q 1366 3272 1645 3428 
Q 1925 3584 2291 3584 
Q 2894 3584 3203 3211 
Q 3513 2838 3513 2113 
z
" transform="scale(0.015625)"/>
        <path id="DejaVuSans-6f" d="M 1959 3097 
Q 1497 3097 1228 2736 
Q 959 2375 959 1747 
Q 959 1119 1226 758 
Q 1494 397 1959 397 
Q 2419 397 2687 759 
Q 2956 1122 2956 1747 
Q 2956 2369 2687 2733 
Q 2419 3097 1959 3097 
z
M 1959 3584 
Q 2709 3584 3137 3096 
Q 3566 2609 3566 1747 
Q 3566 888 3137 398 
Q 2709 -91 1959 -91 
Q 1206 -91 779 398 
Q 353 888 353 1747 
Q 353 2609 779 3096 
Q 1206 3584 1959 3584 
z
" transform="scale(0.015625)"/>
        <path id="DejaVuSans-6d" d="M 3328 2828 
Q 3544 3216 3844 3400 
Q 4144 3584 4550 3584 
Q 5097 3584 5394 3201 
Q 5691 2819 5691 2113 
L 5691 0 
L 5113 0 
L 5113 2094 
Q 5113 2597 4934 2840 
Q 4756 3084 4391 3084 
Q 3944 3084 3684 2787 
Q 3425 2491 3425 1978 
L 3425 0 
L 2847 0 
L 2847 2094 
Q 2847 2600 2669 2842 
Q 2491 3084 2119 3084 
Q 1678 3084 1418 2786 
Q 1159 2488 1159 1978 
L 1159 0 
L 581 0 
L 581 3500 
L 1159 3500 
L 1159 2956 
Q 1356 3278 1631 3431 
Q 1906 3584 2284 3584 
Q 2666 3584 2933 3390 
Q 3200 3197 3328 2828 
z
" transform="scale(0.015625)"/>
       </defs>
       <use xlink:href="#DejaVuSans-61"/>
       <use xlink:href="#DejaVuSans-63" x="61.279297"/>
       <use xlink:href="#DejaVuSans-74" x="116.259766"/>
       <use xlink:href="#DejaVuSans-69" x="155.46875"/>
       <use xlink:href="#DejaVuSans-76" x="183.251953"/>
       <use xlink:href="#DejaVuSans-65" x="242.431641"/>
       <use xlink:href="#DejaVuSans-20" x="303.955078"/>
       <use xlink:href="#DejaVuSans-68" x="335.742188"/>
       <use xlink:href="#DejaVuSans-69" x="399.121094"/>
       <use xlink:href="#DejaVuSans-73" x="426.904297"/>
       <use xlink:href="#DejaVuSans-74" x="479.003906"/>
       <use xlink:href="#DejaVuSans-6f" x="518.212891"/>
       <use xlink:href="#DejaVuSans-67" x="579.394531"/>
       <use xlink:href="#DejaVuSans-72" x="642.871094"/>
       <use xlink:href="#DejaVuSans-61" x="683.984375"/>
       <use xlink:href="#DejaVuSans-6d" x="745.263672"/>
      </g>
     </g>
    </g>
   </g>
   <g id="LineCollection_5">
    <path d="M 176.315864 50.803077 
L 176.315864 32.860769 
" clip-path="url(#p62e99b48a9)" style="fill: none; stroke: #ff0000; stroke-width: 1.5"/>
    <path d="M 351.806068 50.803077 
L 351.806068 32.860769 
" clip-path="url(#p62e99b48a9)" style="fill: none; stroke: #ff0000; stroke-width: 1.5"/>
   </g>
   <g id="line2d_12">
    <defs>
     <path id="m0a100bd17f" d="M 0 3 
C 0.795609 3 1.55874 2.683901 2.12132 2.12132 
C 2.683901 1.55874 3 0.795609 3 0 
C 3 -0.795609 2.683901 -1.55874 2.12132 -2.12132 
C 1.55874 -2.683901 0.795609 -3 0 -3 
C -0.795609 -3 -1.55874 -2.683901 -2.12132 -2.12132 
C -2.683901 -1.55874 -3 -0.795609 -3 0 
C -3 0.795609 -2.683901 1.55874 -2.12132 2.12132 
C -1.55874 2.683901 -0.795609 3 0 3 
z
" style="stroke: #ff0000"/>
    </defs>
    <g clip-path="url(#p62e99b48a9)">
     <use xlink:href="#m0a100bd17f" x="176.315864" y="32.860769" style="fill: #ff0000; stroke: #ff0000"/>
     <use xlink:href="#m0a100bd17f" x="351.806068" y="32.860769" style="fill: #ff0000; stroke: #ff0000"/>
    </g>
   </g>
   <g id="LineCollection_6">
    <path d="M 102.22 50.803077 
L 511.697143 50.803077 
" clip-path="url(#p62e99b48a9)" style="fill: none; stroke: #ff0000; stroke-width: 1.5"/>
   </g>
   <g id="LineCollection_7">
    <path d="M 121.718912 74.726154 
L 121.718912 56.783846 
" clip-path="url(#p62e99b48a9)" style="fill: none; stroke: #ffa500; stroke-width: 1.5"/>
    <path d="M 180.215646 74.726154 
L 180.215646 56.783846 
" clip-path="url(#p62e99b48a9)" style="fill: none; stroke: #ffa500; stroke-width: 1.5"/>
    <path d="M 238.712381 74.726154 
L 238.712381 56.783846 
" clip-path="url(#p62e99b48a9)" style="fill: none; stroke: #ffa500; stroke-width: 1.5"/>
    <path d="M 297.209116 74.726154 
L 297.209116 56.783846 
" clip-path="url(#p62e99b48a9)" style="fill: none; stroke: #ffa500; stroke-width: 1.5"/>
    <path d="M 355.70585 74.726154 
L 355.70585 56.783846 
" clip-path="url(#p62e99b48a9)" style="fill: none; stroke: #ffa500; stroke-width: 1.5"/>
    <path d="M 414.202585 74.726154 
L 414.202585 56.783846 
" clip-path="url(#p62e99b48a9)" style="fill: none; stroke: #ffa500; stroke-width: 1.5"/>
    <path d="M 472.69932 74.726154 
L 472.69932 56.783846 
" clip-path="url(#p62e99b48a9)" style="fill: none; stroke: #ffa500; stroke-width: 1.5"/>
   </g>
   <g id="line2d_13">
    <defs>
     <path id="m90ab934c9e" d="M 0 3 
C 0.795609 3 1.55874 2.683901 2.12132 2.12132 
C 2.683901 1.55874 3 0.795609 3 0 
C 3 -0.795609 2.683901 -1.55874 2.12132 -2.12132 
C 1.55874 -2.683901 0.795609 -3 0 -3 
C -0.795609 -3 -1.55874 -2.683901 -2.12132 -2.12132 
C -2.683901 -1.55874 -3 -0.795609 -3 0 
C -3 0.795609 -2.683901 1.55874 -2.12132 2.12132 
C -1.55874 2.683901 -0.795609 3 0 3 
z
" style="stroke: #ffa500"/>
    </defs>
    <g clip-path="url(#p62e99b48a9)">
     <use xlink:href="#m90ab934c9e" x="121.718912" y="56.783846" style="fill: #ffa500; stroke: #ffa500"/>
     <use xlink:href="#m90ab934c9e" x="180.215646" y="56.783846" style="fill: #ffa500; stroke: #ffa500"/>
     <use xlink:href="#m90ab934c9e" x="238.712381" y="56.783846" style="fill: #ffa500; stroke: #ffa500"/>
     <use xlink:href="#m90ab934c9e" x="297.209116" y="56.783846" style="fill: #ffa500; stroke: #ffa500"/>
     <use xlink:href="#m90ab934c9e" x="355.70585" y="56.783846" style="fill: #ffa500; stroke: #ffa500"/>
     <use xlink:href="#m90ab934c9e" x="414.202585" y="56.783846" style="fill: #ffa500; stroke: #ffa500"/>
     <use xlink:href="#m90ab934c9e" x="472.69932" y="56.783846" style="fill: #ffa500; stroke: #ffa500"/>
    </g>
   </g>
   <g id="LineCollection_8">
    <path d="M 102.22 74.726154 
L 511.697143 74.726154 
" clip-path="url(#p62e99b48a9)" style="fill: none; stroke: #ffa500; stroke-width: 1.5"/>
   </g>
   <g id="LineCollection_9">
    <path d="M 137.318041 98.649231 
L 137.318041 80.706923 
" clip-path="url(#p62e99b48a9)" style="fill: none; stroke: #0000ff; stroke-width: 1.5"/>
    <path d="M 425.901932 98.649231 
L 425.901932 80.706923 
" clip-path="url(#p62e99b48a9)" style="fill: none; stroke: #0000ff; stroke-width: 1.5"/>
   </g>
   <g id="line2d_14">
    <defs>
     <path id="m21cfffcf57" d="M 0 3 
C 0.795609 3 1.55874 2.683901 2.12132 2.12132 
C 2.683901 1.55874 3 0.795609 3 0 
C 3 -0.795609 2.683901 -1.55874 2.12132 -2.12132 
C 1.55874 -2.683901 0.795609 -3 0 -3 
C -0.795609 -3 -1.55874 -2.683901 -2.12132 -2.12132 
C -2.683901 -1.55874 -3 -0.795609 -3 0 
C -3 0.795609 -2.683901 1.55874 -2.12132 2.12132 
C -1.55874 2.683901 -0.795609 3 0 3 
z
" style="stroke: #0000ff"/>
    </defs>
    <g clip-path="url(#p62e99b48a9)">
     <use xlink:href="#m21cfffcf57" x="137.318041" y="80.706923" style="fill: #0000ff; stroke: #0000ff"/>
     <use xlink:href="#m21cfffcf57" x="425.901932" y="80.706923" style="fill: #0000ff; stroke: #0000ff"/>
    </g>
   </g>
   <g id="LineCollection_10">
    <path d="M 102.22 98.649231 
L 511.697143 98.649231 
" clip-path="url(#p62e99b48a9)" style="fill: none; stroke: #0000ff; stroke-width: 1.5"/>
   </g>
   <g id="LineCollection_11">
    <path d="M 141.217823 122.572308 
L 141.217823 104.63 
" clip-path="url(#p62e99b48a9)" style="fill: none; stroke: #008000; stroke-width: 1.5"/>
    <path d="M 285.509769 122.572308 
L 285.509769 104.63 
" clip-path="url(#p62e99b48a9)" style="fill: none; stroke: #008000; stroke-width: 1.5"/>
    <path d="M 429.801714 122.572308 
L 429.801714 104.63 
" clip-path="url(#p62e99b48a9)" style="fill: none; stroke: #008000; stroke-width: 1.5"/>
   </g>
   <g id="line2d_15">
    <defs>
     <path id="m4274f28487" d="M 0 3 
C 0.795609 3 1.55874 2.683901 2.12132 2.12132 
C 2.683901 1.55874 3 0.795609 3 0 
C 3 -0.795609 2.683901 -1.55874 2.12132 -2.12132 
C 1.55874 -2.683901 0.795609 -3 0 -3 
C -0.795609 -3 -1.55874 -2.683901 -2.12132 -2.12132 
C -2.683901 -1.55874 -3 -0.795609 -3 0 
C -3 0.795609 -2.683901 1.55874 -2.12132 2.12132 
C -1.55874 2.683901 -0.795609 3 0 3 
z
" style="stroke: #008000"/>
    </defs>
    <g clip-path="url(#p62e99b48a9)">
     <use xlink:href="#m4274f28487" x="141.217823" y="104.63" style="fill: #008000; stroke: #008000"/>
     <use xlink:href="#m4274f28487" x="285.509769" y="104.63" style="fill: #008000; stroke: #008000"/>
     <use xlink:href="#m4274f28487" x="429.801714" y="104.63" style="fill: #008000; stroke: #008000"/>
    </g>
   </g>
   <g id="LineCollection_12">
    <path d="M 102.22 122.572308 
L 511.697143 122.572308 
" clip-path="url(#p62e99b48a9)" style="fill: none; stroke: #008000; stroke-width: 1.5"/>
   </g>
   <g id="patch_11">
    <path d="M 102.22 151.28 
L 102.22 26.88 
" style="fill: none; stroke: #000000; stroke-width: 0.8; stroke-linejoin: miter; stroke-linecap: square"/>
   </g>
   <g id="patch_12">
    <path d="M 511.697143 151.28 
L 511.697143 26.88 
" style="fill: none; stroke: #000000; stroke-width: 0.8; stroke-linejoin: miter; stroke-linecap: square"/>
   </g>
   <g id="patch_13">
    <path d="M 102.22 151.28 
L 511.697143 151.28 
" style="fill: none; stroke: #000000; stroke-width: 0.8; stroke-linejoin: miter; stroke-linecap: square"/>
   </g>
   <g id="patch_14">
    <path d="M 102.22 26.88 
L 511.697143 26.88 
" style="fill: none; stroke: #000000; stroke-width: 0.8; stroke-linejoin: miter; stroke-linecap: square"/>
   </g>
   <g id="text_12">
    <!-- ? -->
    <g style="fill: #ffa500" transform="translate(126.86457 68.514375) scale(0.1 -0.1)">
     <defs>
      <path id="DejaVuSans-3f" d="M 1222 794 
L 1856 794 
L 1856 0 
L 1222 0 
L 1222 794 
z
M 1838 1253 
L 1241 1253 
L 1241 1734 
Q 1241 2050 1328 2253 
Q 1416 2456 1697 2725 
L 1978 3003 
Q 2156 3169 2236 3316 
Q 2316 3463 2316 3616 
Q 2316 3894 2111 4066 
Q 1906 4238 1569 4238 
Q 1322 4238 1042 4128 
Q 763 4019 459 3809 
L 459 4397 
Q 753 4575 1054 4662 
Q 1356 4750 1678 4750 
Q 2253 4750 2601 4447 
Q 2950 4144 2950 3647 
Q 2950 3409 2837 3195 
Q 2725 2981 2444 2713 
L 2169 2444 
Q 2022 2297 1961 2214 
Q 1900 2131 1875 2053 
Q 1856 1988 1847 1894 
Q 1838 1800 1838 1638 
L 1838 1253 
z
" transform="scale(0.015625)"/>
     </defs>
     <use xlink:href="#DejaVuSans-3f"/>
    </g>
   </g>
   <g id="text_13">
    <!-- 0 -->
    <g style="fill: #ffa500" transform="translate(184.833961 68.514375) scale(0.1 -0.1)">
     <use xlink:href="#DejaVuSans-30"/>
    </g>
   </g>
   <g id="text_14">
    <!-- 1 -->
    <g style="fill: #ffa500" transform="translate(243.330696 68.514375) scale(0.1 -0.1)">
     <use xlink:href="#DejaVuSans-31"/>
    </g>
   </g>
   <g id="text_15">
    <!-- 2 -->
    <g style="fill: #ffa500" transform="translate(301.82743 68.514375) scale(0.1 -0.1)">
     <use xlink:href="#DejaVuSans-32"/>
    </g>
   </g>
   <g id="text_16">
    <!-- 0 -->
    <g style="fill: #ffa500" transform="translate(360.324165 68.514375) scale(0.1 -0.1)">
     <use xlink:href="#DejaVuSans-30"/>
    </g>
   </g>
   <g id="text_17">
    <!-- 1 -->
    <g style="fill: #ffa500" transform="translate(418.8209 68.514375) scale(0.1 -0.1)">
     <use xlink:href="#DejaVuSans-31"/>
    </g>
   </g>
   <g id="text_18">
    <!-- 2 -->
    <g style="fill: #ffa500" transform="translate(477.317634 68.514375) scale(0.1 -0.1)">
     <use xlink:href="#DejaVuSans-32"/>
    </g>
   </g>
   <g id="text_19">
    <!-- 0 -->
    <g style="fill: #008000" transform="translate(145.836138 116.360529) scale(0.1 -0.1)">
     <use xlink:href="#DejaVuSans-30"/>
    </g>
   </g>
   <g id="text_20">
    <!-- 1 -->
    <g style="fill: #008000" transform="translate(290.128083 116.360529) scale(0.1 -0.1)">
     <use xlink:href="#DejaVuSans-31"/>
    </g>
   </g>
   <g id="text_21">
    <!-- 0 -->
    <g style="fill: #008000" transform="translate(434.420029 116.360529) scale(0.1 -0.1)">
     <use xlink:href="#DejaVuSans-30"/>
    </g>
   </g>
   <g id="text_22">
    <!-- 0 -->
    <g transform="translate(206.282764 139.318462) scale(0.1 -0.1)">
     <use xlink:href="#DejaVuSans-30"/>
    </g>
   </g>
   <g id="text_23">
    <!-- 1 -->
    <g transform="translate(258.929825 139.318462) scale(0.1 -0.1)">
     <use xlink:href="#DejaVuSans-31"/>
    </g>
   </g>
   <g id="text_24">
    <!-- 4 -->
    <g transform="translate(288.178192 139.318462) scale(0.1 -0.1)">
     <use xlink:href="#DejaVuSans-34"/>
    </g>
   </g>
   <g id="text_25">
    <!-- 5 -->
    <g transform="translate(321.326342 139.318462) scale(0.1 -0.1)">
     <defs>
      <path id="DejaVuSans-35" d="M 691 4666 
L 3169 4666 
L 3169 4134 
L 1269 4134 
L 1269 2991 
Q 1406 3038 1543 3061 
Q 1681 3084 1819 3084 
Q 2600 3084 3056 2656 
Q 3513 2228 3513 1497 
Q 3513 744 3044 326 
Q 2575 -91 1722 -91 
Q 1428 -91 1123 -41 
Q 819 9 494 109 
L 494 744 
Q 775 591 1075 516 
Q 1375 441 1709 441 
Q 2250 441 2565 725 
Q 2881 1009 2881 1497 
Q 2881 1984 2565 2268 
Q 2250 2553 1709 2553 
Q 1456 2553 1204 2497 
Q 953 2441 691 2322 
L 691 4666 
z
" transform="scale(0.015625)"/>
     </defs>
     <use xlink:href="#DejaVuSans-35"/>
    </g>
   </g>
   <g id="text_26">
    <!-- 3 -->
    <g transform="translate(381.772968 139.318462) scale(0.1 -0.1)">
     <defs>
      <path id="DejaVuSans-33" d="M 2597 2516 
Q 3050 2419 3304 2112 
Q 3559 1806 3559 1356 
Q 3559 666 3084 287 
Q 2609 -91 1734 -91 
Q 1441 -91 1130 -33 
Q 819 25 488 141 
L 488 750 
Q 750 597 1062 519 
Q 1375 441 1716 441 
Q 2309 441 2620 675 
Q 2931 909 2931 1356 
Q 2931 1769 2642 2001 
Q 2353 2234 1838 2234 
L 1294 2234 
L 1294 2753 
L 1863 2753 
Q 2328 2753 2575 2939 
Q 2822 3125 2822 3475 
Q 2822 3834 2567 4026 
Q 2313 4219 1838 4219 
Q 1578 4219 1281 4162 
Q 984 4106 628 3988 
L 628 4550 
Q 988 4650 1302 4700 
Q 1616 4750 1894 4750 
Q 2613 4750 3031 4423 
Q 3450 4097 3450 3541 
Q 3450 3153 3228 2886 
Q 3006 2619 2597 2516 
z
" transform="scale(0.015625)"/>
     </defs>
     <use xlink:href="#DejaVuSans-33"/>
    </g>
   </g>
   <g id="text_27">
    <!-- 4 -->
    <g transform="translate(416.871009 139.318462) scale(0.1 -0.1)">
     <use xlink:href="#DejaVuSans-34"/>
    </g>
   </g>
   <g id="text_28">
    <!-- 1 -->
    <g transform="translate(448.069267 139.318462) scale(0.1 -0.1)">
     <use xlink:href="#DejaVuSans-31"/>
    </g>
   </g>
   <g id="text_29">
    <!-- 2 -->
    <g transform="translate(489.016981 139.318462) scale(0.1 -0.1)">
     <use xlink:href="#DejaVuSans-32"/>
    </g>
   </g>
   <g id="text_30">
    <!-- time (us) -->
    <g transform="translate(519.496707 163.878438) scale(0.1 -0.1)">
     <defs>
      <path id="DejaVuSans-28" d="M 1984 4856 
Q 1566 4138 1362 3434 
Q 1159 2731 1159 2009 
Q 1159 1288 1364 580 
Q 1569 -128 1984 -844 
L 1484 -844 
Q 1016 -109 783 600 
Q 550 1309 550 2009 
Q 550 2706 781 3412 
Q 1013 4119 1484 4856 
L 1984 4856 
z
" transform="scale(0.015625)"/>
      <path id="DejaVuSans-75" d="M 544 1381 
L 544 3500 
L 1119 3500 
L 1119 1403 
Q 1119 906 1312 657 
Q 1506 409 1894 409 
Q 2359 409 2629 706 
Q 2900 1003 2900 1516 
L 2900 3500 
L 3475 3500 
L 3475 0 
L 2900 0 
L 2900 538 
Q 2691 219 2414 64 
Q 2138 -91 1772 -91 
Q 1169 -91 856 284 
Q 544 659 544 1381 
z
M 1991 3584 
L 1991 3584 
z
" transform="scale(0.015625)"/>
      <path id="DejaVuSans-29" d="M 513 4856 
L 1013 4856 
Q 1481 4119 1714 3412 
Q 1947 2706 1947 2009 
Q 1947 1309 1714 600 
Q 1481 -109 1013 -844 
L 513 -844 
Q 928 -128 1133 580 
Q 1338 1288 1338 2009 
Q 1338 2731 1133 3434 
Q 928 4138 513 4856 
z
" transform="scale(0.015625)"/>
     </defs>
     <use xlink:href="#DejaVuSans-74"/>
     <use xlink:href="#DejaVuSans-69" x="39.208984"/>
     <use xlink:href="#DejaVuSans-6d" x="66.992188"/>
     <use xlink:href="#DejaVuSans-65" x="164.404297"/>
     <use xlink:href="#DejaVuSans-20" x="225.927734"/>
     <use xlink:href="#DejaVuSans-28" x="257.714844"/>
     <use xlink:href="#DejaVuSans-75" x="296.728516"/>
     <use xlink:href="#DejaVuSans-73" x="360.107422"/>
     <use xlink:href="#DejaVuSans-29" x="412.207031"/>
    </g>
   </g>
   <g id="text_31">
    <!-- TimeDifferencesND -->
    <g transform="translate(249.023884 20.88) scale(0.12 -0.12)">
     <defs>
      <path id="DejaVuSans-54" d="M -19 4666 
L 3928 4666 
L 3928 4134 
L 2272 4134 
L 2272 0 
L 1638 0 
L 1638 4134 
L -19 4134 
L -19 4666 
z
" transform="scale(0.015625)"/>
      <path id="DejaVuSans-44" d="M 1259 4147 
L 1259 519 
L 2022 519 
Q 2988 519 3436 956 
Q 3884 1394 3884 2338 
Q 3884 3275 3436 3711 
Q 2988 4147 2022 4147 
L 1259 4147 
z
M 628 4666 
L 1925 4666 
Q 3281 4666 3915 4102 
Q 4550 3538 4550 2338 
Q 4550 1131 3912 565 
Q 3275 0 1925 0 
L 628 0 
L 628 4666 
z
" transform="scale(0.015625)"/>
      <path id="DejaVuSans-66" d="M 2375 4863 
L 2375 4384 
L 1825 4384 
Q 1516 4384 1395 4259 
Q 1275 4134 1275 3809 
L 1275 3500 
L 2222 3500 
L 2222 3053 
L 1275 3053 
L 1275 0 
L 697 0 
L 697 3053 
L 147 3053 
L 147 3500 
L 697 3500 
L 697 3744 
Q 697 4328 969 4595 
Q 1241 4863 1831 4863 
L 2375 4863 
z
" transform="scale(0.015625)"/>
      <path id="DejaVuSans-4e" d="M 628 4666 
L 1478 4666 
L 3547 763 
L 3547 4666 
L 4159 4666 
L 4159 0 
L 3309 0 
L 1241 3903 
L 1241 0 
L 628 0 
L 628 4666 
z
" transform="scale(0.015625)"/>
     </defs>
     <use xlink:href="#DejaVuSans-54"/>
     <use xlink:href="#DejaVuSans-69" x="57.958984"/>
     <use xlink:href="#DejaVuSans-6d" x="85.742188"/>
     <use xlink:href="#DejaVuSans-65" x="183.154297"/>
     <use xlink:href="#DejaVuSans-44" x="244.677734"/>
     <use xlink:href="#DejaVuSans-69" x="321.679688"/>
     <use xlink:href="#DejaVuSans-66" x="349.462891"/>
     <use xlink:href="#DejaVuSans-66" x="384.667969"/>
     <use xlink:href="#DejaVuSans-65" x="419.873047"/>
     <use xlink:href="#DejaVuSans-72" x="481.396484"/>
     <use xlink:href="#DejaVuSans-65" x="520.259766"/>
     <use xlink:href="#DejaVuSans-6e" x="581.783203"/>
     <use xlink:href="#DejaVuSans-63" x="645.162109"/>
     <use xlink:href="#DejaVuSans-65" x="700.142578"/>
     <use xlink:href="#DejaVuSans-73" x="761.666016"/>
     <use xlink:href="#DejaVuSans-4e" x="813.765625"/>
     <use xlink:href="#DejaVuSans-44" x="888.570312"/>
    </g>
   </g>
  </g>
  <g id="axes_2">
   <g id="patch_15">
    <path d="M 213.658571 319.64 
L 400.258571 319.64 
L 400.258571 195.24 
L 213.658571 195.24 
L 213.658571 319.64 
z
" style="fill: none"/>
   </g>
   <g id="patch_16">
    <path d="M 215.515005 302.076581 
Q 241.053042 291.723323 266.59108 281.370064 
L 265.463965 278.589846 
Q 269.734974 278.476934 274.005983 278.364022 
Q 270.862089 281.257152 267.718196 284.150282 
L 266.59108 281.370064 
Q 241.053042 291.723323 215.515005 302.076581 
L 215.515005 302.076581 
z
" clip-path="url(#p92f15000f5)" style="fill: #808080; stroke: #808080; stroke-linecap: round"/>
   </g>
   <g id="patch_17">
    <path d="M 277.714245 276.860673 
Q 297.034859 269.027991 316.355473 261.19531 
L 315.228358 258.415092 
Q 319.498067 258.302707 323.767776 258.190323 
Q 320.625182 261.082925 317.482589 263.975528 
L 316.355473 261.19531 
Q 297.034859 269.027991 277.714245 276.860673 
L 277.714245 276.860673 
z
" clip-path="url(#p92f15000f5)" style="fill: #808080; stroke: #808080; stroke-linecap: round"/>
   </g>
   <g id="patch_18">
    <path d="M 327.474245 256.6877 
Q 328.132949 256.420658 328.791652 256.153616 
L 327.664537 253.373398 
Q 331.935167 253.26064 336.205798 253.147881 
Q 333.062283 256.040857 329.918768 258.933834 
L 328.791652 256.153616 
Q 328.132949 256.420658 327.474245 256.6877 
L 327.474245 256.6877 
z
" clip-path="url(#p92f15000f5)" style="fill: #808080; stroke: #808080; stroke-linecap: round"/>
   </g>
   <g id="patch_19">
    <path d="M 339.911714 251.645483 
Q 363.377283 242.132414 386.842851 232.619346 
L 385.715736 229.839128 
Q 389.985955 229.726537 394.256173 229.613945 
Q 391.11307 232.506754 387.969967 235.399564 
L 386.842851 232.619346 
Q 363.377283 242.132414 339.911714 251.645483 
L 339.911714 251.645483 
z
" clip-path="url(#p92f15000f5)" style="fill: #808080; stroke: #808080; stroke-linecap: round"/>
   </g>
   <g id="patch_20">
    <path d="M 394.110197 228.843178 
Q 308.883892 228.057924 223.657588 227.272669 
L 223.629948 230.272542 
Q 219.645147 228.735763 215.660347 227.198984 
Q 219.672787 225.73589 223.685228 224.272796 
L 223.657588 227.272669 
Q 308.883892 228.057924 394.110197 228.843178 
L 394.110197 228.843178 
z
" clip-path="url(#p92f15000f5)" style="fill: #ff0000; stroke-dasharray: 1,5; stroke-dashoffset: 0; stroke: #ff0000; stroke-linecap: round"/>
   </g>
   <g id="patch_21">
    <path d="M 215.515005 226.427933 
Q 241.053042 216.074674 266.59108 205.721415 
L 265.463965 202.941198 
Q 269.734974 202.828286 274.005983 202.715374 
Q 270.862089 205.608503 267.718196 208.501633 
L 266.59108 205.721415 
Q 241.053042 216.074674 215.515005 226.427933 
L 215.515005 226.427933 
z
" clip-path="url(#p92f15000f5)" style="fill: #808080; stroke: #808080; stroke-linecap: round"/>
   </g>
   <g id="patch_22">
    <path d="M 277.714245 201.212024 
Q 278.372949 200.944982 279.031652 200.67794 
L 277.904537 197.897722 
Q 282.175167 197.784964 286.445798 197.672206 
Q 283.302283 200.565182 280.158768 203.458158 
L 279.031652 200.67794 
Q 278.372949 200.944982 277.714245 201.212024 
L 277.714245 201.212024 
z
" clip-path="url(#p92f15000f5)" style="fill: #808080; stroke: #808080; stroke-linecap: round"/>
   </g>
   <g id="patch_23">
    <path d="M 288.366021 198.917211 
Q 290.236735 254.280245 292.107449 309.643279 
L 295.105738 309.541967 
Q 293.74169 313.590732 292.377641 317.639497 
Q 290.743401 313.692044 289.109161 309.744591 
L 292.107449 309.643279 
Q 290.236735 254.280245 288.366021 198.917211 
L 288.366021 198.917211 
z
" clip-path="url(#p92f15000f5)" style="fill: #0000ff; stroke-dasharray: 1,5; stroke-dashoffset: 0; stroke: #0000ff; stroke-linecap: round"/>
   </g>
   <g id="patch_24">
    <path d="M 294.296609 318.889444 
Q 311.544202 311.897177 328.791794 304.90491 
L 327.664679 302.124692 
Q 331.936117 302.011606 336.207556 301.89852 
Q 333.063233 304.791824 329.91891 307.685127 
L 328.791794 304.90491 
Q 311.544202 311.897177 294.296609 318.889444 
L 294.296609 318.889444 
z
" clip-path="url(#p92f15000f5)" style="fill: #808080; stroke: #808080; stroke-linecap: round"/>
   </g>
   <g id="patch_25">
    <path d="M 339.913739 300.396013 
Q 355.084343 294.245768 370.254947 288.095524 
L 369.127831 285.315306 
Q 373.399349 285.202188 377.670867 285.089069 
Q 374.526464 287.982405 371.382062 290.875741 
L 370.254947 288.095524 
Q 355.084343 294.245768 339.913739 300.396013 
L 339.913739 300.396013 
z
" clip-path="url(#p92f15000f5)" style="fill: #808080; stroke: #808080; stroke-linecap: round"/>
   </g>
   <g id="patch_26">
    <path d="M 381.37585 283.587049 
Q 387.353542 281.163661 393.331234 278.740272 
L 393.143381 278.276902 
Q 393.701243 278.320505 394.259105 278.364108 
Q 393.889096 278.783875 393.519086 279.203642 
L 393.331234 278.740272 
Q 387.353542 281.163661 381.37585 283.587049 
L 381.37585 283.587049 
z
" clip-path="url(#p92f15000f5)" style="fill: #808080; stroke-dasharray: 1,5; stroke-dashoffset: 0; stroke: #808080; stroke-linecap: round"/>
   </g>
   <g id="matplotlib.axis_3">
    <g id="xtick_7">
     <g id="line2d_16">
      <path d="M 213.658571 319.64 
L 213.658571 195.24 
" clip-path="url(#p92f15000f5)" style="fill: none; stroke: #b0b0b0; stroke-width: 0.8; stroke-linecap: square"/>
     </g>
     <g id="line2d_17">
      <g>
       <use xlink:href="#me57bf10f47" x="213.658571" y="319.64" style="stroke: #000000; stroke-width: 0.8"/>
      </g>
     </g>
    </g>
    <g id="xtick_8">
     <g id="line2d_18">
      <path d="M 275.858571 319.64 
L 275.858571 195.24 
" clip-path="url(#p92f15000f5)" style="fill: none; stroke: #b0b0b0; stroke-width: 0.8; stroke-linecap: square"/>
     </g>
     <g id="line2d_19">
      <g>
       <use xlink:href="#me57bf10f47" x="275.858571" y="319.64" style="stroke: #000000; stroke-width: 0.8"/>
      </g>
     </g>
    </g>
    <g id="xtick_9">
     <g id="line2d_20">
      <path d="M 338.058571 319.64 
L 338.058571 195.24 
" clip-path="url(#p92f15000f5)" style="fill: none; stroke: #b0b0b0; stroke-width: 0.8; stroke-linecap: square"/>
     </g>
     <g id="line2d_21">
      <g>
       <use xlink:href="#me57bf10f47" x="338.058571" y="319.64" style="stroke: #000000; stroke-width: 0.8"/>
      </g>
     </g>
    </g>
    <g id="xtick_10">
     <g id="line2d_22">
      <path d="M 400.258571 319.64 
L 400.258571 195.24 
" clip-path="url(#p92f15000f5)" style="fill: none; stroke: #b0b0b0; stroke-width: 0.8; stroke-linecap: square"/>
     </g>
     <g id="line2d_23">
      <g>
       <use xlink:href="#me57bf10f47" x="400.258571" y="319.64" style="stroke: #000000; stroke-width: 0.8"/>
      </g>
     </g>
    </g>
    <g id="xtick_11">
     <g id="line2d_24">
      <defs>
       <path id="m9227bdb88d" d="M 0 0 
L 0 2 
" style="stroke: #000000; stroke-width: 0.6"/>
      </defs>
      <g>
       <use xlink:href="#m9227bdb88d" x="244.758571" y="319.64" style="stroke: #000000; stroke-width: 0.6"/>
      </g>
     </g>
     <g id="text_32">
      <!-- 0 -->
      <g transform="translate(241.577321 332.638438) scale(0.1 -0.1)">
       <use xlink:href="#DejaVuSans-30"/>
      </g>
     </g>
    </g>
    <g id="xtick_12">
     <g id="line2d_25">
      <g>
       <use xlink:href="#m9227bdb88d" x="306.958571" y="319.64" style="stroke: #000000; stroke-width: 0.6"/>
      </g>
     </g>
     <g id="text_33">
      <!-- 1 -->
      <g transform="translate(303.777321 332.638438) scale(0.1 -0.1)">
       <use xlink:href="#DejaVuSans-31"/>
      </g>
     </g>
    </g>
    <g id="xtick_13">
     <g id="line2d_26">
      <g>
       <use xlink:href="#m9227bdb88d" x="369.158571" y="319.64" style="stroke: #000000; stroke-width: 0.6"/>
      </g>
     </g>
     <g id="text_34">
      <!-- 2 -->
      <g transform="translate(365.977321 332.638438) scale(0.1 -0.1)">
       <use xlink:href="#DejaVuSans-32"/>
      </g>
     </g>
    </g>
    <g id="text_35">
     <!-- histogram index #0 -->
     <g transform="translate(257.38279 346.316563) scale(0.1 -0.1)">
      <defs>
       <path id="DejaVuSans-64" d="M 2906 2969 
L 2906 4863 
L 3481 4863 
L 3481 0 
L 2906 0 
L 2906 525 
Q 2725 213 2448 61 
Q 2172 -91 1784 -91 
Q 1150 -91 751 415 
Q 353 922 353 1747 
Q 353 2572 751 3078 
Q 1150 3584 1784 3584 
Q 2172 3584 2448 3432 
Q 2725 3281 2906 2969 
z
M 947 1747 
Q 947 1113 1208 752 
Q 1469 391 1925 391 
Q 2381 391 2643 752 
Q 2906 1113 2906 1747 
Q 2906 2381 2643 2742 
Q 2381 3103 1925 3103 
Q 1469 3103 1208 2742 
Q 947 2381 947 1747 
z
" transform="scale(0.015625)"/>
      </defs>
      <use xlink:href="#DejaVuSans-68"/>
      <use xlink:href="#DejaVuSans-69" x="63.378906"/>
      <use xlink:href="#DejaVuSans-73" x="91.162109"/>
      <use xlink:href="#DejaVuSans-74" x="143.261719"/>
      <use xlink:href="#DejaVuSans-6f" x="182.470703"/>
      <use xlink:href="#DejaVuSans-67" x="243.652344"/>
      <use xlink:href="#DejaVuSans-72" x="307.128906"/>
      <use xlink:href="#DejaVuSans-61" x="348.242188"/>
      <use xlink:href="#DejaVuSans-6d" x="409.521484"/>
      <use xlink:href="#DejaVuSans-20" x="506.933594"/>
      <use xlink:href="#DejaVuSans-69" x="538.720703"/>
      <use xlink:href="#DejaVuSans-6e" x="566.503906"/>
      <use xlink:href="#DejaVuSans-64" x="629.882812"/>
      <use xlink:href="#DejaVuSans-65" x="693.359375"/>
      <use xlink:href="#DejaVuSans-78" x="753.132812"/>
      <use xlink:href="#DejaVuSans-20" x="812.3125"/>
      <use xlink:href="#DejaVuSans-23" x="844.099609"/>
      <use xlink:href="#DejaVuSans-30" x="927.888672"/>
     </g>
    </g>
   </g>
   <g id="matplotlib.axis_4">
    <g id="ytick_6">
     <g id="line2d_27">
      <path d="M 213.658571 319.64 
L 400.258571 319.64 
" clip-path="url(#p92f15000f5)" style="fill: none; stroke: #b0b0b0; stroke-width: 0.8; stroke-linecap: square"/>
     </g>
     <g id="line2d_28">
      <g>
       <use xlink:href="#m86468b31d3" x="213.658571" y="319.64" style="stroke: #000000; stroke-width: 0.8"/>
      </g>
     </g>
    </g>
    <g id="ytick_7">
     <g id="line2d_29">
      <path d="M 213.658571 257.44 
L 400.258571 257.44 
" clip-path="url(#p92f15000f5)" style="fill: none; stroke: #b0b0b0; stroke-width: 0.8; stroke-linecap: square"/>
     </g>
     <g id="line2d_30">
      <g>
       <use xlink:href="#m86468b31d3" x="213.658571" y="257.44" style="stroke: #000000; stroke-width: 0.8"/>
      </g>
     </g>
    </g>
    <g id="ytick_8">
     <g id="line2d_31">
      <path d="M 213.658571 195.24 
L 400.258571 195.24 
" clip-path="url(#p92f15000f5)" style="fill: none; stroke: #b0b0b0; stroke-width: 0.8; stroke-linecap: square"/>
     </g>
     <g id="line2d_32">
      <g>
       <use xlink:href="#m86468b31d3" x="213.658571" y="195.24" style="stroke: #000000; stroke-width: 0.8"/>
      </g>
     </g>
    </g>
    <g id="ytick_9">
     <g id="line2d_33">
      <defs>
       <path id="m88ef650a9c" d="M 0 0 
L -2 0 
" style="stroke: #000000; stroke-width: 0.6"/>
      </defs>
      <g>
       <use xlink:href="#m88ef650a9c" x="213.658571" y="302.829189" style="stroke: #000000; stroke-width: 0.6"/>
      </g>
     </g>
     <g id="text_36">
      <!-- start -->
      <g transform="translate(184.969509 306.628408) scale(0.1 -0.1)">
       <use xlink:href="#DejaVuSans-73"/>
       <use xlink:href="#DejaVuSans-74" x="52.099609"/>
       <use xlink:href="#DejaVuSans-61" x="91.308594"/>
       <use xlink:href="#DejaVuSans-72" x="152.587891"/>
       <use xlink:href="#DejaVuSans-74" x="193.701172"/>
      </g>
     </g>
    </g>
    <g id="ytick_10">
     <g id="line2d_34">
      <g>
       <use xlink:href="#m88ef650a9c" x="213.658571" y="288.54" style="stroke: #000000; stroke-width: 0.6"/>
      </g>
     </g>
     <g id="text_37">
      <!-- 0 -->
      <g transform="translate(201.896071 292.339219) scale(0.1 -0.1)">
       <use xlink:href="#DejaVuSans-30"/>
      </g>
     </g>
    </g>
    <g id="ytick_11">
     <g id="line2d_35">
      <g>
       <use xlink:href="#m88ef650a9c" x="213.658571" y="226.34" style="stroke: #000000; stroke-width: 0.6"/>
      </g>
     </g>
     <g id="text_38">
      <!-- 1 -->
      <g transform="translate(201.896071 230.139219) scale(0.1 -0.1)">
       <use xlink:href="#DejaVuSans-31"/>
      </g>
     </g>
    </g>
    <g id="text_39">
     <!-- histogram index #1 -->
     <g transform="translate(178.889821 307.015781) rotate(-90) scale(0.1 -0.1)">
      <use xlink:href="#DejaVuSans-68"/>
      <use xlink:href="#DejaVuSans-69" x="63.378906"/>
      <use xlink:href="#DejaVuSans-73" x="91.162109"/>
      <use xlink:href="#DejaVuSans-74" x="143.261719"/>
      <use xlink:href="#DejaVuSans-6f" x="182.470703"/>
      <use xlink:href="#DejaVuSans-67" x="243.652344"/>
      <use xlink:href="#DejaVuSans-72" x="307.128906"/>
      <use xlink:href="#DejaVuSans-61" x="348.242188"/>
      <use xlink:href="#DejaVuSans-6d" x="409.521484"/>
      <use xlink:href="#DejaVuSans-20" x="506.933594"/>
      <use xlink:href="#DejaVuSans-69" x="538.720703"/>
      <use xlink:href="#DejaVuSans-6e" x="566.503906"/>
      <use xlink:href="#DejaVuSans-64" x="629.882812"/>
      <use xlink:href="#DejaVuSans-65" x="693.359375"/>
      <use xlink:href="#DejaVuSans-78" x="753.132812"/>
      <use xlink:href="#DejaVuSans-20" x="812.3125"/>
      <use xlink:href="#DejaVuSans-23" x="844.099609"/>
      <use xlink:href="#DejaVuSans-31" x="927.888672"/>
     </g>
    </g>
   </g>
   <g id="line2d_36">
    <defs>
     <path id="m03ead375a3" d="M 0 2.5 
C 0.663008 2.5 1.29895 2.236584 1.767767 1.767767 
C 2.236584 1.29895 2.5 0.663008 2.5 0 
C 2.5 -0.663008 2.236584 -1.29895 1.767767 -1.767767 
C 1.29895 -2.236584 0.663008 -2.5 0 -2.5 
C -0.663008 -2.5 -1.29895 -2.236584 -1.767767 -1.767767 
C -2.236584 -1.29895 -2.5 -0.663008 -2.5 0 
C -2.5 0.663008 -2.236584 1.29895 -1.767767 1.767767 
C -1.29895 2.236584 -0.663008 2.5 0 2.5 
z
" style="stroke: #ffa500"/>
    </defs>
    <g clip-path="url(#p92f15000f5)">
     <use xlink:href="#m03ead375a3" x="213.658571" y="302.829189" style="fill: #ffa500; stroke: #ffa500"/>
     <use xlink:href="#m03ead375a3" x="275.858571" y="277.612973" style="fill: #ffa500; stroke: #ffa500"/>
     <use xlink:href="#m03ead375a3" x="338.058571" y="252.396757" style="fill: #ffa500; stroke: #ffa500"/>
     <use xlink:href="#m03ead375a3" x="213.658571" y="227.180541" style="fill: #ffa500; stroke: #ffa500"/>
     <use xlink:href="#m03ead375a3" x="275.858571" y="201.964324" style="fill: #ffa500; stroke: #ffa500"/>
     <use xlink:href="#m03ead375a3" x="338.058571" y="301.148108" style="fill: #ffa500; stroke: #ffa500"/>
    </g>
   </g>
   <g id="line2d_37">
    <defs>
     <path id="m173a4bb6d1" d="M 0 2.5 
C 0.663008 2.5 1.29895 2.236584 1.767767 1.767767 
C 2.236584 1.29895 2.5 0.663008 2.5 0 
C 2.5 -0.663008 2.236584 -1.29895 1.767767 -1.767767 
C 1.29895 -2.236584 0.663008 -2.5 0 -2.5 
C -0.663008 -2.5 -1.29895 -2.236584 -1.767767 -1.767767 
C -2.236584 -1.29895 -2.5 -0.663008 -2.5 0 
C -2.5 0.663008 -2.236584 1.29895 -1.767767 1.767767 
C -1.29895 2.236584 -0.663008 2.5 0 2.5 
z
" style="stroke: #008000"/>
    </defs>
    <g clip-path="url(#p92f15000f5)">
     <use xlink:href="#m173a4bb6d1" x="325.618571" y="257.44" style="fill: #008000; stroke: #008000"/>
     <use xlink:href="#m173a4bb6d1" x="292.445238" y="319.64" style="fill: #008000; stroke: #008000"/>
    </g>
   </g>
   <g id="patch_27">
    <path d="M 213.658571 319.64 
L 213.658571 195.24 
" style="fill: none; stroke: #000000; stroke-width: 0.8; stroke-linejoin: miter; stroke-linecap: square"/>
   </g>
   <g id="patch_28">
    <path d="M 400.258571 319.64 
L 400.258571 195.24 
" style="fill: none; stroke: #000000; stroke-width: 0.8; stroke-linejoin: miter; stroke-linecap: square"/>
   </g>
   <g id="patch_29">
    <path d="M 213.658571 319.64 
L 400.258571 319.64 
" style="fill: none; stroke: #000000; stroke-width: 0.8; stroke-linejoin: miter; stroke-linecap: square"/>
   </g>
   <g id="patch_30">
    <path d="M 213.658571 195.24 
L 400.258571 195.24 
" style="fill: none; stroke: #000000; stroke-width: 0.8; stroke-linejoin: miter; stroke-linecap: square"/>
   </g>
   <g id="text_40">
    <!-- 0 -->
    <g transform="translate(241.577321 291.299375) scale(0.1 -0.1)">
     <use xlink:href="#DejaVuSans-30"/>
    </g>
   </g>
   <g id="text_41">
    <!-- 1 -->
    <g transform="translate(303.777321 291.299375) scale(0.1 -0.1)">
     <use xlink:href="#DejaVuSans-31"/>
    </g>
   </g>
   <g id="text_42">
    <!-- 2 -->
    <g transform="translate(365.977321 291.299375) scale(0.1 -0.1)">
     <use xlink:href="#DejaVuSans-32"/>
    </g>
   </g>
   <g id="text_43">
    <!-- 3 -->
    <g transform="translate(241.577321 229.099375) scale(0.1 -0.1)">
     <use xlink:href="#DejaVuSans-33"/>
    </g>
   </g>
   <g id="text_44">
    <!-- 4 -->
    <g transform="translate(303.777321 229.099375) scale(0.1 -0.1)">
     <use xlink:href="#DejaVuSans-34"/>
    </g>
   </g>
   <g id="text_45">
    <!-- 5 -->
    <g transform="translate(365.977321 229.099375) scale(0.1 -0.1)">
     <use xlink:href="#DejaVuSans-35"/>
    </g>
   </g>
   <g id="text_46">
    <!-- Timeline of active histograms -->
    <g transform="translate(218.167009 189.24) scale(0.12 -0.12)">
     <defs>
      <path id="DejaVuSans-6c" d="M 603 4863 
L 1178 4863 
L 1178 0 
L 603 0 
L 603 4863 
z
" transform="scale(0.015625)"/>
     </defs>
     <use xlink:href="#DejaVuSans-54"/>
     <use xlink:href="#DejaVuSans-69" x="57.958984"/>
     <use xlink:href="#DejaVuSans-6d" x="85.742188"/>
     <use xlink:href="#DejaVuSans-65" x="183.154297"/>
     <use xlink:href="#DejaVuSans-6c" x="244.677734"/>
     <use xlink:href="#DejaVuSans-69" x="272.460938"/>
     <use xlink:href="#DejaVuSans-6e" x="300.244141"/>
     <use xlink:href="#DejaVuSans-65" x="363.623047"/>
     <use xlink:href="#DejaVuSans-20" x="425.146484"/>
     <use xlink:href="#DejaVuSans-6f" x="456.933594"/>
     <use xlink:href="#DejaVuSans-66" x="518.115234"/>
     <use xlink:href="#DejaVuSans-20" x="553.320312"/>
     <use xlink:href="#DejaVuSans-61" x="585.107422"/>
     <use xlink:href="#DejaVuSans-63" x="646.386719"/>
     <use xlink:href="#DejaVuSans-74" x="701.367188"/>
     <use xlink:href="#DejaVuSans-69" x="740.576172"/>
     <use xlink:href="#DejaVuSans-76" x="768.359375"/>
     <use xlink:href="#DejaVuSans-65" x="827.539062"/>
     <use xlink:href="#DejaVuSans-20" x="889.0625"/>
     <use xlink:href="#DejaVuSans-68" x="920.849609"/>
     <use xlink:href="#DejaVuSans-69" x="984.228516"/>
     <use xlink:href="#DejaVuSans-73" x="1012.011719"/>
     <use xlink:href="#DejaVuSans-74" x="1064.111328"/>
     <use xlink:href="#DejaVuSans-6f" x="1103.320312"/>
     <use xlink:href="#DejaVuSans-67" x="1164.501953"/>
     <use xlink:href="#DejaVuSans-72" x="1227.978516"/>
     <use xlink:href="#DejaVuSans-61" x="1269.091797"/>
     <use xlink:href="#DejaVuSans-6d" x="1330.371094"/>
     <use xlink:href="#DejaVuSans-73" x="1427.783203"/>
    </g>
   </g>
  </g>
 </g>
 <defs>
  <clipPath id="p62e99b48a9">
   <rect x="102.22" y="26.88" width="409.477143" height="124.4"/>
  </clipPath>
  <clipPath id="p92f15000f5">
   <rect x="213.658571" y="195.24" width="186.6" height="124.4"/>
  </clipPath>
 </defs>
</svg>
